<svg width="18" height="18" viewBox="0 0 18 18" fill="none" xmlns="http://www.w3.org/2000/svg">
<path d="M2.25 4.5C2.25 4.30109 2.32902 4.11032 2.46967 3.96967C2.61032 3.82902 2.80109 3.75 3 3.75H12C12.1989 3.75 12.3897 3.82902 12.5303 3.96967C12.671 4.11032 12.75 4.30109 12.75 4.5C12.75 4.69891 12.671 4.88968 12.5303 5.03033C12.3897 5.17098 12.1989 5.25 12 5.25H3C2.80109 5.25 2.61032 5.17098 2.46967 5.03033C2.32902 4.88968 2.25 4.69891 2.25 4.5ZM3.1875 9C3.1875 8.85082 3.24676 8.70774 3.35225 8.60225C3.45774 8.49676 3.60082 8.4375 3.75 8.4375H15.1425L14.2275 7.5225C14.1722 7.471 14.1279 7.4089 14.0972 7.3399C14.0664 7.2709 14.0499 7.19642 14.0486 7.12089C14.0472 7.04536 14.0611 6.97034 14.0894 6.9003C14.1177 6.83026 14.1598 6.76664 14.2132 6.71322C14.2666 6.65981 14.3303 6.6177 14.4003 6.58941C14.4703 6.56112 14.5454 6.54722 14.6209 6.54856C14.6964 6.54989 14.7709 6.56642 14.8399 6.59716C14.9089 6.62791 14.971 6.67224 15.0225 6.7275L16.8975 8.6025C17.0028 8.70797 17.062 8.85094 17.062 9C17.062 9.14906 17.0028 9.29203 16.8975 9.3975L15.0225 11.2725C14.971 11.3278 14.9089 11.3721 14.8399 11.4028C14.7709 11.4336 14.6964 11.4501 14.6209 11.4514C14.5454 11.4528 14.4703 11.4389 14.4003 11.4106C14.3303 11.3823 14.2666 11.3402 14.2132 11.2868C14.1598 11.2334 14.1177 11.1697 14.0894 11.0997C14.0611 11.0297 14.0472 10.9546 14.0486 10.8791C14.0499 10.8036 14.0664 10.7291 14.0972 10.6601C14.1279 10.5911 14.1722 10.529 14.2275 10.4775L15.1425 9.5625H3.75C3.60082 9.5625 3.45774 9.50324 3.35225 9.39775C3.24676 9.29226 3.1875 9.14918 3.1875 9ZM3 12.75C2.80109 12.75 2.61032 12.829 2.46967 12.9697C2.32902 13.1103 2.25 13.3011 2.25 13.5C2.25 13.6989 2.32902 13.8897 2.46967 14.0303C2.61032 14.171 2.80109 14.25 3 14.25H12C12.1989 14.25 12.3897 14.171 12.5303 14.0303C12.671 13.8897 12.75 13.6989 12.75 13.5C12.75 13.3011 12.671 13.1103 12.5303 12.9697C12.3897 12.829 12.1989 12.75 12 12.75H3Z" fill="white"/>
</svg>
