<svg width="16" height="10" viewBox="0 0 16 10" fill="none" xmlns="http://www.w3.org/2000/svg">
<path d="M8.5625 0.5H2.375C1.41875 0.5 0.6875 1.23125 0.6875 2.1875V7.8125C0.6875 8.76875 1.41875 9.5 2.375 9.5H8.5625C9.51875 9.5 10.25 8.76875 10.25 7.8125V2.1875C10.25 1.23125 9.51875 0.5 8.5625 0.5Z" fill="white"/>
<path d="M15.0312 0.556299C14.8625 0.443799 14.6375 0.443799 14.4688 0.556299L11.6562 2.2438C11.4875 2.3563 11.375 2.52505 11.375 2.75005V7.25005C11.375 7.47505 11.4875 7.6438 11.6562 7.7563L14.4688 9.4438C14.525 9.50005 14.6375 9.50005 14.75 9.50005C14.8625 9.50005 14.9188 9.50005 15.0312 9.4438C15.2 9.3313 15.3125 9.16255 15.3125 8.93755V1.06255C15.3125 0.837549 15.2 0.668799 15.0312 0.556299Z" fill="white"/>
</svg>
