<svg width="16" height="16" viewBox="0 0 16 16" fill="none" xmlns="http://www.w3.org/2000/svg">
<path fill-rule="evenodd" clip-rule="evenodd" d="M8 1.5C6.38067 1.5 4.78867 1.61867 3.232 1.84733C1.91333 2.04067 1 3.19667 1 4.494V8.506C1 9.80334 1.91333 10.9593 3.232 11.1527C3.81667 11.2387 4.406 11.3087 5 11.3633V14C5.00009 14.0988 5.02946 14.1954 5.08441 14.2776C5.13935 14.3597 5.21741 14.4237 5.30872 14.4615C5.40003 14.4993 5.50049 14.5092 5.59742 14.49C5.69436 14.4707 5.78341 14.4232 5.85333 14.3533L8.64267 11.5647C8.69005 11.518 8.75352 11.4913 8.82 11.49C10.1573 11.4567 11.4747 11.3433 12.768 11.1527C14.0867 10.9593 15 9.804 15 8.506V4.494C15 3.196 14.0867 2.04067 12.768 1.84733C11.1892 1.6156 9.59567 1.49952 8 1.5ZM5.5 5.75C5.30109 5.75 5.11032 5.82902 4.96967 5.96967C4.82902 6.11032 4.75 6.30109 4.75 6.5C4.75 6.69891 4.82902 6.88968 4.96967 7.03033C5.11032 7.17098 5.30109 7.25 5.5 7.25C5.69891 7.25 5.88968 7.17098 6.03033 7.03033C6.17098 6.88968 6.25 6.69891 6.25 6.5C6.25 6.30109 6.17098 6.11032 6.03033 5.96967C5.88968 5.82902 5.69891 5.75 5.5 5.75ZM7.25 6.5C7.25 6.30109 7.32902 6.11032 7.46967 5.96967C7.61032 5.82902 7.80109 5.75 8 5.75C8.19891 5.75 8.38968 5.82902 8.53033 5.96967C8.67098 6.11032 8.75 6.30109 8.75 6.5C8.75 6.69891 8.67098 6.88968 8.53033 7.03033C8.38968 7.17098 8.19891 7.25 8 7.25C7.80109 7.25 7.61032 7.17098 7.46967 7.03033C7.32902 6.88968 7.25 6.69891 7.25 6.5ZM10.5 5.75C10.3011 5.75 10.1103 5.82902 9.96967 5.96967C9.82902 6.11032 9.75 6.30109 9.75 6.5C9.75 6.69891 9.82902 6.88968 9.96967 7.03033C10.1103 7.17098 10.3011 7.25 10.5 7.25C10.6989 7.25 10.8897 7.17098 11.0303 7.03033C11.171 6.88968 11.25 6.69891 11.25 6.5C11.25 6.30109 11.171 6.11032 11.0303 5.96967C10.8897 5.82902 10.6989 5.75 10.5 5.75Z" fill="white"/>
</svg>
