<svg width="14" height="20" viewBox="0 0 14 20" fill="none" xmlns="http://www.w3.org/2000/svg">
<path d="M0.333252 10.0001C0.333251 4.93758 2.57158 0.833414 5.33325 0.833414L8.66658 0.833414C11.4283 0.833414 13.6666 4.93758 13.6666 10.0001C13.6666 14.9726 11.5074 19.0201 8.81409 19.1626L8.66658 19.1667L5.33325 19.1667C2.57159 19.1667 0.333252 15.0626 0.333252 10.0001ZM10.3333 10.0001C10.3333 13.1001 9.49409 15.8417 8.20825 17.5001L8.66658 17.5001C10.2349 17.5001 11.9999 14.2642 11.9999 10.0001C11.9999 5.82508 10.3083 2.63508 8.76492 2.50425L8.66658 2.50008L8.20825 2.49925C9.49325 4.15758 10.3333 6.89925 10.3333 10.0001ZM1.99992 10.0001C1.99992 14.2642 3.76492 17.5001 5.33325 17.5001C6.90159 17.5001 8.66658 14.2642 8.66658 10.0001C8.66658 5.73591 6.90158 2.50008 5.33325 2.50008C3.76492 2.50008 1.99992 5.73591 1.99992 10.0001Z" fill="white"/>
</svg>
