<svg width="16" height="16" viewBox="0 0 16 16" fill="none" xmlns="http://www.w3.org/2000/svg">
<path d="M14.4875 1.5127C14.1593 1.18458 13.7142 1.00024 13.2502 1.00024C12.7861 1.00024 12.341 1.18458 12.0128 1.5127L11.2415 2.28404L13.7162 4.7587L14.4875 3.98737C14.8156 3.65919 15 3.21412 15 2.75004C15 2.28596 14.8156 1.84088 14.4875 1.5127ZM13.0088 5.46604L10.5342 2.99137L2.43417 11.0914C2.02274 11.5026 1.72029 12.0099 1.55417 12.5674L1.02084 14.3574C0.995087 14.4437 0.993167 14.5355 1.01528 14.6229C1.03739 14.7102 1.08271 14.79 1.14645 14.8538C1.21018 14.9175 1.28996 14.9628 1.37734 14.9849C1.46472 15.007 1.55646 15.0051 1.64284 14.9794L3.43284 14.446C3.99032 14.2799 4.49761 13.9775 4.90884 13.566L13.0088 5.46604Z" fill="white"/>
</svg>
