<svg width="16" height="16" viewBox="0 0 16 16" fill="none" xmlns="http://www.w3.org/2000/svg">
<path d="M8 10C8.53043 10 9.03914 9.78929 9.41421 9.41421C9.78929 9.03914 10 8.53043 10 8C10 7.46957 9.78929 6.96086 9.41421 6.58579C9.03914 6.21071 8.53043 6 8 6C7.46957 6 6.96086 6.21071 6.58579 6.58579C6.21071 6.96086 6 7.46957 6 8C6 8.53043 6.21071 9.03914 6.58579 9.41421C6.96086 9.78929 7.46957 10 8 10Z" fill="white"/>
<path fill-rule="evenodd" clip-rule="evenodd" d="M0.881725 7.63133C1.87373 4.65067 4.68506 2.5 8.00039 2.5C11.3137 2.5 14.1237 4.64867 15.1171 7.62667C15.1971 7.868 15.1971 8.128 15.1171 8.36867C14.1257 11.3493 11.3137 13.5 7.99906 13.5C4.68572 13.5 1.87506 11.3513 0.882392 8.37333C0.802224 8.1325 0.802224 7.87217 0.882392 7.63133H0.881725ZM11.4997 8C11.4997 8.92826 11.131 9.8185 10.4746 10.4749C9.81822 11.1313 8.92798 11.5 7.99972 11.5C7.07147 11.5 6.18123 11.1313 5.52485 10.4749C4.86847 9.8185 4.49973 8.92826 4.49973 8C4.49973 7.07174 4.86847 6.1815 5.52485 5.52513C6.18123 4.86875 7.07147 4.5 7.99972 4.5C8.92798 4.5 9.81822 4.86875 10.4746 5.52513C11.131 6.1815 11.4997 7.07174 11.4997 8Z" fill="white"/>
</svg>
