<svg width="16" height="16" viewBox="0 0 16 16" fill="none" xmlns="http://www.w3.org/2000/svg">
<path d="M14.866 2.25C14.11 1.51178 13.0655 1.14282 11.732 1.14282C11.363 1.14282 10.9864 1.20681 10.6026 1.33471C10.2186 1.46271 9.86133 1.6354 9.53127 1.85265C9.20078 2.06984 8.91676 2.2738 8.6785 2.46422C8.44051 2.65471 8.21425 2.85713 8 3.07135C7.78566 2.85713 7.55946 2.65471 7.32144 2.46422C7.08327 2.2738 6.79912 2.06997 6.46869 1.85265C6.13833 1.63531 5.78116 1.46274 5.39725 1.33471C5.01338 1.20684 4.63682 1.14282 4.26781 1.14282C2.93442 1.14282 1.88985 1.51187 1.13392 2.25C0.377995 2.98807 0 4.01182 0 5.32134C0 5.72016 0.0700512 6.13096 0.209872 6.55342C0.349693 6.97604 0.509028 7.33621 0.687565 7.63377C0.86607 7.9313 1.0685 8.22157 1.2947 8.50431C1.52089 8.78708 1.6862 8.98185 1.79025 9.08908C1.89438 9.1961 1.97626 9.27356 2.03577 9.32109L7.60712 14.6961C7.71429 14.8034 7.84523 14.857 7.99997 14.857C8.15471 14.857 8.28574 14.8034 8.39285 14.6964L13.9553 9.33911C15.3185 7.97614 16 6.63683 16 5.32134C16 4.01182 15.6219 2.98807 14.866 2.25Z" fill="white"/>
</svg>
