<svg width="16" height="16" viewBox="0 0 16 16" fill="none" xmlns="http://www.w3.org/2000/svg">
<path d="M6.08984 13.8488V11.8103C6.08984 11.29 6.51477 10.8681 7.03895 10.8681H8.95506C9.20678 10.8681 9.44819 10.9674 9.62618 11.1441C9.80417 11.3208 9.90417 11.5604 9.90417 11.8103V13.8488C9.90258 14.0652 9.98803 14.2732 10.1416 14.4267C10.2951 14.5802 10.504 14.6666 10.722 14.6666H12.0292C12.6397 14.6682 13.2258 14.4285 13.6581 14.0005C14.0904 13.5724 14.3333 12.9912 14.3333 12.3851V6.57782C14.3333 6.08823 14.1147 5.62381 13.7364 5.3097L9.28934 1.78383C8.51576 1.16563 7.4074 1.18559 6.65692 1.83124L2.31133 5.3097C1.91515 5.61455 1.67836 6.08034 1.66666 6.57782V12.3792C1.66666 13.6425 2.69824 14.6666 3.97077 14.6666H5.24818C5.70081 14.6666 6.06865 14.3041 6.07193 13.8547L6.08984 13.8488Z" fill="white"/>
</svg>
