<svg width="48" height="48" viewBox="0 0 48 48" fill="none" xmlns="http://www.w3.org/2000/svg">
<path fill-rule="evenodd" clip-rule="evenodd" d="M24 4C19.5817 4 16 7.58172 16 12V20H32V12C32 7.58172 28.4182 4 24 4ZM36 20V12C36 5.37258 30.6274 0 24 0C17.3726 0 12 5.37258 12 12V20C8.6863 20 6 22.6862 6 26V42C6 45.3138 8.6863 48 12 48H36C39.3138 48 42 45.3138 42 42V26C42 22.6862 39.3138 20 36 20ZM12 24C10.8954 24 10 24.8954 10 26V42C10 43.1046 10.8954 44 12 44H36C37.1046 44 38 43.1046 38 42V26C38 24.8954 37.1046 24 36 24H12ZM24 30C25.1046 30 26 30.8954 26 32V36C26 37.1046 25.1046 38 24 38C22.8954 38 22 37.1046 22 36V32C22 30.8954 22.8954 30 24 30Z" fill="white"/>
</svg>
