<svg width="16" height="16" viewBox="0 0 16 16" fill="none" xmlns="http://www.w3.org/2000/svg">
<path d="M8 5C7.60218 5 7.22064 5.15804 6.93934 5.43934C6.65804 5.72064 6.5 6.10218 6.5 6.5C6.5 6.89782 6.65804 7.27936 6.93934 7.56066C7.22064 7.84196 7.60218 8 8 8C8.39782 8 8.77936 7.84196 9.06066 7.56066C9.34196 7.27936 9.5 6.89782 9.5 6.5C9.5 6.10218 9.34196 5.72064 9.06066 5.43934C8.77936 5.15804 8.39782 5 8 5Z" fill="white"/>
<path fill-rule="evenodd" clip-rule="evenodd" d="M1 3.25C1 2.55933 1.56 2 2.25 2H13.75C14.44 2 15 2.56 15 3.25V9.75C15 10.4407 14.44 11 13.75 11H2.25C2.08585 11 1.9233 10.9677 1.77165 10.9049C1.61999 10.842 1.48219 10.75 1.36612 10.6339C1.25004 10.5178 1.15797 10.38 1.09515 10.2284C1.03233 10.0767 1 9.91415 1 9.75V3.25ZM5.5 6.5C5.5 5.83696 5.76339 5.20107 6.23223 4.73223C6.70107 4.26339 7.33696 4 8 4C8.66304 4 9.29893 4.26339 9.76777 4.73223C10.2366 5.20107 10.5 5.83696 10.5 6.5C10.5 7.16304 10.2366 7.79893 9.76777 8.26777C9.29893 8.73661 8.66304 9 8 9C7.33696 9 6.70107 8.73661 6.23223 8.26777C5.76339 7.79893 5.5 7.16304 5.5 6.5ZM12.5 6C12.3674 6 12.2402 6.05268 12.1464 6.14645C12.0527 6.24022 12 6.36739 12 6.5V6.50533C12 6.78133 12.224 7.00533 12.5 7.00533H12.5053C12.6379 7.00533 12.7651 6.95265 12.8589 6.85889C12.9527 6.76512 13.0053 6.63794 13.0053 6.50533V6.5C13.0053 6.36739 12.9527 6.24022 12.8589 6.14645C12.7651 6.05268 12.6379 6 12.5053 6H12.5ZM3 6.5C3 6.36739 3.05268 6.24022 3.14645 6.14645C3.24021 6.05268 3.36739 6 3.5 6H3.50533C3.63794 6 3.76512 6.05268 3.85889 6.14645C3.95266 6.24022 4.00533 6.36739 4.00533 6.5V6.50533C4.00533 6.63794 3.95266 6.76512 3.85889 6.85889C3.76512 6.95265 3.63794 7.00533 3.50533 7.00533H3.5C3.36739 7.00533 3.24021 6.95265 3.14645 6.85889C3.05268 6.76512 3 6.63794 3 6.50533V6.5Z" fill="white"/>
<path d="M1.5 12C1.36739 12 1.24021 12.0527 1.14645 12.1464C1.05268 12.2402 1 12.3674 1 12.5C1 12.6326 1.05268 12.7598 1.14645 12.8536C1.24021 12.9473 1.36739 13 1.5 13C5.1 13 8.58667 13.4813 11.9 14.3833C12.6933 14.5993 13.5 14.0113 13.5 13.17V12.5C13.5 12.3674 13.4473 12.2402 13.3536 12.1464C13.2598 12.0527 13.1326 12 13 12H1.5Z" fill="white"/>
</svg>
