<svg width="20" height="20" viewBox="0 0 20 20" fill="none" xmlns="http://www.w3.org/2000/svg">
<path d="M1.875 11.25H5.09167C5.43983 11.2501 5.7811 11.3471 6.07723 11.5302C6.37336 11.7133 6.61266 11.9752 6.76833 12.2867L6.98167 12.7133C7.1374 13.0249 7.37683 13.2869 7.67313 13.47C7.96942 13.6531 8.31086 13.7501 8.65917 13.75H11.3408C11.6891 13.7501 12.0306 13.6531 12.3269 13.47C12.6232 13.2869 12.8626 13.0249 13.0183 12.7133L13.2317 12.2867C13.3874 11.9751 13.6268 11.7131 13.9231 11.53C14.2194 11.3469 14.5609 11.2499 14.9092 11.25H18.125M1.875 11.5317V15C1.875 15.4973 2.07254 15.9742 2.42417 16.3258C2.77581 16.6775 3.25272 16.875 3.75 16.875H16.25C16.7473 16.875 17.2242 16.6775 17.5758 16.3258C17.9275 15.9742 18.125 15.4973 18.125 15V11.5317C18.125 11.345 18.0967 11.1592 18.0417 10.9808L16.0333 4.44833C15.9154 4.0652 15.6778 3.72996 15.3553 3.49179C15.0328 3.25362 14.6425 3.12507 14.2417 3.125H5.75917C5.35829 3.12507 4.96799 3.25362 4.64554 3.49179C4.32308 3.72996 4.08545 4.0652 3.9675 4.44833L1.95833 10.9808C1.90328 11.1593 1.87519 11.3449 1.875 11.5317Z" stroke="white" stroke-width="1.5" stroke-linecap="round" stroke-linejoin="round"/>
</svg>
