<svg width="16" height="16" viewBox="0 0 16 16" fill="none" xmlns="http://www.w3.org/2000/svg">
<g clip-path="url(#clip0_107_930)">
<path d="M7.99999 0.102295C6.41928 0.103561 4.87443 0.573452 3.56073 1.45257C2.24703 2.33169 1.22347 3.58056 0.619432 5.04131C0.0153963 6.50206 -0.141991 8.1091 0.167166 9.65929C0.476324 11.2095 1.23814 12.6332 2.35632 13.7505C3.4745 14.8678 4.89884 15.6284 6.44927 15.9364C7.9997 16.2443 9.60662 16.0856 11.0669 15.4804C12.5272 14.8752 13.7752 13.8506 14.6533 12.5362C15.5313 11.2218 16 9.67661 16 8.09589C15.9983 5.97527 15.1547 3.94208 13.6546 2.44318C12.1545 0.94427 10.1206 0.102294 7.99999 0.102295ZM12.48 4.03829L10.4 10.2719C10.3844 10.3197 10.3577 10.3632 10.3221 10.3988C10.2865 10.4344 10.243 10.4611 10.1952 10.4767L3.94239 12.5567H3.83999C3.79227 12.5552 3.74548 12.5431 3.70305 12.5212C3.66062 12.4993 3.62363 12.4682 3.59479 12.4302C3.56595 12.3921 3.54599 12.3481 3.53636 12.3013C3.52674 12.2546 3.52771 12.2062 3.53919 12.1599L5.61919 5.91349C5.63482 5.86566 5.66151 5.82218 5.69709 5.7866C5.73268 5.75101 5.77615 5.72432 5.82399 5.70869L12.0576 3.6287C12.1139 3.61077 12.1739 3.60845 12.2314 3.62198C12.2889 3.6355 12.3416 3.66437 12.384 3.70549C12.4269 3.74805 12.4569 3.80189 12.4705 3.86079C12.4841 3.91969 12.4807 3.98123 12.4608 4.03829H12.48ZM7.99999 6.50229C7.68354 6.50229 7.3742 6.59613 7.11108 6.77194C6.84796 6.94775 6.64288 7.19764 6.52178 7.49C6.40068 7.78236 6.369 8.10407 6.43073 8.41444C6.49247 8.72481 6.64486 9.0099 6.86862 9.23367C7.09238 9.45743 7.37748 9.60981 7.68785 9.67155C7.99821 9.73329 8.31992 9.7016 8.61228 9.5805C8.90465 9.4594 9.15453 9.25433 9.33034 8.99121C9.50615 8.72809 9.59999 8.41875 9.59999 8.10229C9.60005 7.88891 9.55743 7.67767 9.47463 7.481C9.39183 7.28433 9.27053 7.10622 9.11787 6.95713C8.9652 6.80804 8.78426 6.691 8.58568 6.61289C8.38711 6.53478 8.17491 6.49717 7.96159 6.50229H7.99999Z" fill="white"/>
</g>
<defs>
<clipPath id="clip0_107_930">
<rect width="16" height="16" fill="white"/>
</clipPath>
</defs>
</svg>
