<svg width="20" height="20" viewBox="0 0 20 20" fill="none" xmlns="http://www.w3.org/2000/svg">
<path d="M1.875 10.6333C1.875 11.9667 2.81083 13.1283 4.13083 13.3225C5.03667 13.4558 5.95167 13.5583 6.875 13.63V17.5L10.2717 14.1033C10.502 13.8745 10.8112 13.7424 11.1358 13.7342C12.7203 13.6903 14.3009 13.5528 15.8692 13.3225C17.1892 13.1283 18.125 11.9675 18.125 10.6325V5.6175C18.125 4.2825 17.1892 3.12167 15.8692 2.9275C13.9258 2.64226 11.9642 2.49938 10 2.5C8.00667 2.5 6.04667 2.64584 4.13083 2.9275C2.81083 3.12167 1.875 4.28334 1.875 5.6175V10.6325V10.6333Z" stroke="white" stroke-width="1.5" stroke-linecap="round" stroke-linejoin="round"/>
</svg>
