<svg width="16" height="16" viewBox="0 0 16 16" fill="none" xmlns="http://www.w3.org/2000/svg">
<path d="M14.4734 7.53323L12.9734 6.03323C12.8487 5.90416 12.6779 5.82989 12.4985 5.82676C12.3191 5.82364 12.1458 5.89191 12.0167 6.01656C11.8876 6.14121 11.8133 6.31203 11.8102 6.49144C11.8071 6.67085 11.8754 6.84416 12 6.97323L12.36 7.33323H6.77336C6.59655 7.33323 6.42698 7.40347 6.30195 7.52849C6.17693 7.65351 6.10669 7.82308 6.10669 7.9999C6.10669 8.17671 6.17693 8.34628 6.30195 8.4713C6.42698 8.59632 6.59655 8.66656 6.77336 8.66656H12.4L12.04 9.02656C11.9702 9.08633 11.9136 9.15987 11.8735 9.24258C11.8335 9.32529 11.811 9.41538 11.8075 9.50719C11.8039 9.59901 11.8194 9.69056 11.8529 9.77611C11.8864 9.86166 11.9373 9.93936 12.0023 10.0043C12.0672 10.0693 12.1449 10.1201 12.2305 10.1537C12.316 10.1872 12.4076 10.2026 12.4994 10.1991C12.5912 10.1955 12.6813 10.1731 12.764 10.133C12.8467 10.093 12.9203 10.0363 12.98 9.96656L14.4667 8.4799C14.5296 8.41836 14.5797 8.34498 14.6141 8.26398C14.6486 8.18297 14.6666 8.09596 14.6672 8.00795C14.6678 7.91994 14.651 7.83268 14.6178 7.7512C14.5845 7.66973 14.5354 7.59564 14.4734 7.53323Z" fill="white"/>
<path d="M5.44004 7.99992C5.44004 7.6463 5.58052 7.30716 5.83057 7.05711C6.08061 6.80706 6.41975 6.66658 6.77337 6.66658H10.9467V3.99992C10.9467 3.29267 10.6658 2.6144 10.1657 2.1143C9.66556 1.6142 8.98729 1.33325 8.28004 1.33325H4.00004C3.2928 1.33325 2.61452 1.6142 2.11442 2.1143C1.61433 2.6144 1.33337 3.29267 1.33337 3.99992V11.9999C1.33337 12.7072 1.61433 13.3854 2.11442 13.8855C2.61452 14.3856 3.2928 14.6666 4.00004 14.6666H8.28004C8.63023 14.6666 8.977 14.5976 9.30053 14.4636C9.62407 14.3296 9.91804 14.1332 10.1657 13.8855C10.4133 13.6379 10.6097 13.3439 10.7437 13.0204C10.8777 12.6969 10.9467 12.3501 10.9467 11.9999V9.33325H6.77337C6.41975 9.33325 6.08061 9.19278 5.83057 8.94273C5.58052 8.69268 5.44004 8.35354 5.44004 7.99992Z" fill="white"/>
</svg>
