<svg width="16" height="16" viewBox="0 0 16 16" fill="none" xmlns="http://www.w3.org/2000/svg">
<path d="M13.7631 9.018L13.5001 8.866C13.1871 8.6855 13.0001 8.3615 13.0001 8C13.0001 7.6385 13.1871 7.3145 13.5001 7.134L13.7631 6.982C14.4811 6.567 14.7266 5.651 14.3121 4.933L13.8121 4.067C13.3986 3.3505 12.4791 3.1045 11.7631 3.518L11.5001 3.6695C11.1871 3.8505 10.8126 3.8505 10.5001 3.6695C10.1871 3.4885 10.0001 3.165 10.0001 2.8035V2.5C10.0001 1.673 9.32706 1 8.50006 1H7.50006C6.67306 1 6.00006 1.673 6.00006 2.5V2.804C6.00006 3.1655 5.81306 3.489 5.50006 3.67C5.18706 3.8505 4.81306 3.851 4.50006 3.67L4.23706 3.518C3.52106 3.1045 2.60156 3.3505 2.18756 4.067L1.68756 4.933C1.27306 5.651 1.51856 6.5675 2.23656 6.982L2.50006 7.134C2.81306 7.3145 3.00006 7.6385 3.00006 8C3.00006 8.3615 2.81306 8.6855 2.50006 8.866L2.23706 9.018C1.51906 9.4325 1.27356 10.349 1.68806 11.067L2.18806 11.933C2.60206 12.6495 3.52156 12.8955 4.23706 12.482L4.50006 12.3305C4.81306 12.149 5.18706 12.15 5.50006 12.3305C5.81306 12.5115 6.00006 12.835 6.00006 13.1965V13.5C6.00006 14.327 6.67306 15 7.50006 15H8.50006C9.32706 15 10.0001 14.327 10.0001 13.5V13.196C10.0001 12.8345 10.1871 12.511 10.5001 12.33C10.8126 12.1495 11.1871 12.149 11.5001 12.33L11.7631 12.482C12.4791 12.895 13.3986 12.649 13.8121 11.933L14.3121 11.067C14.7266 10.349 14.4811 9.4325 13.7631 9.018ZM8.00006 10.5C6.62156 10.5 5.50006 9.3785 5.50006 8C5.50006 6.6215 6.62156 5.5 8.00006 5.5C9.37856 5.5 10.5001 6.6215 10.5001 8C10.5001 9.3785 9.37856 10.5 8.00006 10.5Z" fill="white"/>
</svg>
