<svg width="16" height="16" viewBox="0 0 16 16" fill="none" xmlns="http://www.w3.org/2000/svg">
<path fill-rule="evenodd" clip-rule="evenodd" d="M10.5002 3.00005C10.5001 2.53513 10.6621 2.08472 10.9581 1.72626C11.2542 1.3678 11.6659 1.12368 12.1224 1.03587C12.579 0.948069 13.0519 1.02206 13.4598 1.24513C13.8677 1.46821 14.1851 1.82642 14.3575 2.25819C14.53 2.68995 14.5466 3.1683 14.4045 3.61098C14.2625 4.05367 13.9706 4.43303 13.5792 4.68385C13.1877 4.93468 12.7211 5.04129 12.2595 4.98536C11.798 4.92942 11.3704 4.71445 11.0502 4.37738L5.43616 7.49671C5.52193 7.82679 5.52193 8.1733 5.43616 8.50338L11.0502 11.6227C11.3857 11.27 11.8383 11.0517 12.3232 11.0088C12.8081 10.966 13.292 11.1014 13.6842 11.3898C14.0764 11.6782 14.3499 12.0998 14.4535 12.5754C14.5571 13.0511 14.4837 13.5482 14.247 13.9736C14.0102 14.399 13.6265 14.7234 13.1677 14.8861C12.7089 15.0488 12.2064 15.0385 11.7546 14.8572C11.3028 14.676 10.9327 14.3362 10.7135 13.9015C10.4943 13.4668 10.4412 12.9671 10.5642 12.496L4.95016 9.37738C4.67472 9.66737 4.31867 9.86813 3.92799 9.95372C3.5373 10.0393 3.12993 10.0058 2.75849 9.85751C2.38704 9.70922 2.06858 9.45298 1.84425 9.12187C1.61991 8.79076 1.5 8.4 1.5 8.00005C1.5 7.6001 1.61991 7.20933 1.84425 6.87822C2.06858 6.54711 2.38704 6.29087 2.75849 6.14259C3.12993 5.9943 3.5373 5.96079 3.92799 6.04638C4.31867 6.13196 4.67472 6.33272 4.95016 6.62271L10.5642 3.50338C10.5215 3.339 10.5 3.16986 10.5002 3.00005Z" fill="#797C81"/>
</svg>
