<svg width="14" height="14" viewBox="0 0 14 14" fill="none" xmlns="http://www.w3.org/2000/svg">
<path d="M6.65312 1.33265C6.68131 1.26387 6.72933 1.20503 6.79106 1.16362C6.8528 1.12221 6.92545 1.1001 6.99978 1.1001C7.07412 1.1001 7.14677 1.12221 7.2085 1.16362C7.27024 1.20503 7.31825 1.26387 7.34645 1.33265L8.76312 4.73998C8.78964 4.80374 8.83323 4.85894 8.8891 4.89952C8.94497 4.9401 9.01095 4.96448 9.07978 4.96998L12.7585 5.26465C13.0911 5.29131 13.2258 5.70665 12.9725 5.92331L10.1698 8.32465C10.1174 8.36944 10.0784 8.42778 10.057 8.49328C10.0356 8.55878 10.0326 8.62891 10.0485 8.69598L10.9051 12.286C10.9223 12.358 10.9178 12.4335 10.8921 12.503C10.8665 12.5724 10.8208 12.6327 10.7609 12.6763C10.701 12.7198 10.6295 12.7445 10.5555 12.7475C10.4815 12.7504 10.4083 12.7313 10.3451 12.6926L7.19512 10.7693C7.1363 10.7334 7.06871 10.7144 6.99978 10.7144C6.93086 10.7144 6.86327 10.7334 6.80445 10.7693L3.65445 12.6933C3.59129 12.732 3.51809 12.7511 3.44409 12.7481C3.37009 12.7452 3.29862 12.7204 3.2387 12.6769C3.17877 12.6334 3.13309 12.5731 3.10742 12.5036C3.08175 12.4342 3.07723 12.3587 3.09445 12.2866L3.95112 8.69598C3.967 8.62891 3.96408 8.55876 3.94268 8.49325C3.92127 8.42773 3.88221 8.36939 3.82978 8.32465L1.02712 5.92331C0.970679 5.8752 0.929788 5.81143 0.909624 5.74006C0.889459 5.66869 0.890927 5.59295 0.913843 5.52241C0.936759 5.45188 0.980091 5.38974 1.03835 5.34385C1.09661 5.29796 1.16718 5.2704 1.24112 5.26465L4.91978 4.96998C4.98862 4.96448 5.0546 4.9401 5.11047 4.89952C5.16634 4.85894 5.20993 4.80374 5.23645 4.73998L6.65312 1.33265Z" stroke="white" stroke-width="1.5" stroke-linecap="round" stroke-linejoin="round"/>
</svg>
