<svg width="24" height="24" viewBox="0 0 24 24" fill="none" xmlns="http://www.w3.org/2000/svg">
<g clip-path="url(#clip0_38_104)">
<path d="M7.23543 10.085L11.8963 5.42436L16.5595 10.0875L19.2715 7.37547L11.8963 0L4.52344 7.37301L7.23543 10.085Z" fill="#F3BA2F"/>
<path d="M5.32034 11.9995L2.6084 9.2876L-0.103681 11.9997L2.60826 14.7116L5.32034 11.9995Z" fill="#F3BA2F"/>
<path d="M7.2355 13.9151L11.8963 18.5758L16.5594 13.9128L19.2729 16.6233L19.2716 16.6248L11.8963 24.0001L4.52332 16.6273L4.51953 16.6235L7.2355 13.9151Z" fill="#F3BA2F"/>
<path d="M21.1844 14.7128L23.8965 12.0007L21.1845 9.28879L18.4725 12.0009L21.1844 14.7128Z" fill="#F3BA2F"/>
<path d="M14.6472 11.9986H14.6484L11.8964 9.24658L9.86262 11.2803H9.86243L9.6289 11.5141L9.14686 11.9961L9.14307 11.9999L9.14686 12.0039L11.8964 14.7534L14.6484 12.0014L14.6497 11.9999L14.6472 11.9986Z" fill="#F3BA2F"/>
</g>
<defs>
<clipPath id="clip0_38_104">
<rect width="24" height="24" fill="white"/>
</clipPath>
</defs>
</svg>
