<svg width="30" height="30" viewBox="0 0 30 30" fill="none" xmlns="http://www.w3.org/2000/svg">
<path d="M15 0C23.285 0 30 6.71632 30 15C30 23.285 23.285 30 15 30C6.71632 30 0 23.2844 0 15C0 6.71632 6.71632 0 15 0Z" fill="#F5AC37"/>
<path d="M15.5528 16.0591H21.2526C21.3741 16.0591 21.4314 16.0591 21.4402 15.8998C21.4868 15.32 21.4868 14.7367 21.4402 14.1562C21.4402 14.0435 21.3842 13.9969 21.262 13.9969H9.91853C9.77812 13.9969 9.74032 14.0435 9.74032 14.1751V15.8438C9.74032 16.0591 9.74032 16.0591 9.9651 16.0591H15.5528ZM20.8037 12.0468C20.8199 12.0043 20.8199 11.9577 20.8037 11.9159C20.7085 11.7087 20.5958 11.5109 20.4648 11.3253C20.2677 11.008 20.0355 10.7157 19.7709 10.4532C19.646 10.2945 19.5016 10.1521 19.3396 10.0313C18.5282 9.34074 17.5637 8.85204 16.5268 8.60634C16.0037 8.48889 15.4691 8.43286 14.9332 8.43759H9.89895C9.75855 8.43759 9.73965 8.49361 9.73965 8.61579V11.9436C9.73965 12.084 9.73965 12.1218 9.91785 12.1218H20.7362C20.7362 12.1218 20.83 12.1029 20.8489 12.0468H20.803H20.8037ZM20.8037 18.0092C20.6444 17.9916 20.4837 17.9916 20.3244 18.0092H9.92798C9.78757 18.0092 9.74032 18.0092 9.74032 18.1968V21.4504C9.74032 21.6002 9.74032 21.638 9.92798 21.638H14.7279C14.9575 21.6556 15.187 21.6394 15.4117 21.5914C16.1083 21.5415 16.7935 21.3903 17.4469 21.1412C17.6845 21.0589 17.914 20.9515 18.1307 20.8226H18.1961C19.3214 20.2374 20.2353 19.318 20.8118 18.1894C20.8118 18.1894 20.8773 18.0477 20.8037 18.0105V18.0092ZM7.85638 23.3249V23.2688V21.0845V20.344V18.1408C7.85638 18.0186 7.85638 18.0004 7.70653 18.0004H5.67206C5.55933 18.0004 5.51276 18.0004 5.51276 17.8506V16.0692H7.68763C7.80913 16.0692 7.85638 16.0692 7.85638 15.9099V14.1475C7.85638 14.0347 7.85638 14.0071 7.70653 14.0071H5.67206C5.55933 14.0071 5.51276 14.0071 5.51276 13.8572V12.2075C5.51276 12.1042 5.51276 12.0765 5.66261 12.0765H7.67818C7.81858 12.0765 7.85638 12.0765 7.85638 11.8983V6.84525C7.85638 6.69539 7.85638 6.65759 8.04403 6.65759H15.0749C15.5852 6.67784 16.0921 6.73387 16.5937 6.82634C17.6271 7.01737 18.62 7.3866 19.5279 7.91378C20.13 8.26816 20.6842 8.69611 21.1776 9.18887C21.5489 9.5743 21.8837 9.99145 22.1807 10.4356C22.4757 10.8858 22.7207 11.3671 22.9131 11.87C22.9367 12.0009 23.0623 12.0894 23.1932 12.0671H24.8713C25.0866 12.0671 25.0866 12.0671 25.0961 12.2736V13.8113C25.0961 13.9612 25.04 13.999 24.8895 13.999H23.5955C23.4646 13.999 23.4268 13.999 23.4362 14.1677C23.4875 14.7388 23.4875 15.3119 23.4362 15.8829C23.4362 16.0422 23.4362 16.0611 23.6151 16.0611H25.0954C25.1609 16.1455 25.0954 16.2299 25.0954 16.3149C25.1048 16.4236 25.1048 16.5336 25.0954 16.6423V17.777C25.0954 17.9363 25.0488 17.9835 24.9077 17.9835H23.1358C23.0123 17.9599 22.8922 18.0389 22.8638 18.1617C22.4419 19.2586 21.7669 20.2421 20.8948 21.0305C20.5762 21.3174 20.2414 21.5874 19.8918 21.8365C19.5164 22.0525 19.1513 22.2772 18.7665 22.4555C18.0584 22.7741 17.3159 23.009 16.5538 23.1581C15.8302 23.2877 15.0965 23.3465 14.3601 23.3363H7.85368V23.3269L7.85638 23.3249Z" fill="#FEFEFD"/>
</svg>
