<svg width="24" height="24" viewBox="0 0 24 24" fill="none" xmlns="http://www.w3.org/2000/svg">
<path d="M23.0811 7.23007C21.9561 6.19132 20.3998 4.60507 19.1323 3.48007L19.0573 3.42757C18.9325 3.32737 18.7918 3.24878 18.6411 3.19507C15.5848 2.62507 1.36105 -0.0336757 1.08355 7.4334e-05C1.0058 0.0109644 0.931473 0.0391563 0.866055 0.0825743L0.794805 0.138824C0.707071 0.227925 0.640436 0.335566 0.599805 0.453824L0.581055 0.502574V0.768824V0.810074C2.1823 5.26882 8.50481 19.8751 9.74981 23.3026C9.82481 23.5351 9.96731 23.9776 10.2336 24.0001H10.2936C10.4361 24.0001 11.0436 23.1976 11.0436 23.1976C11.0436 23.1976 21.9036 10.0276 23.0023 8.62507C23.1445 8.45232 23.2701 8.26649 23.3773 8.07007C23.4047 7.9164 23.3918 7.75825 23.3398 7.61104C23.2879 7.46384 23.1988 7.33258 23.0811 7.23007ZM13.8298 8.76382L18.4648 4.92007L21.1836 7.42507L13.8298 8.76382ZM12.0298 8.51257L4.0498 1.97257L16.9611 4.35382L12.0298 8.51257ZM12.7498 10.2263L20.9173 8.91007L11.5798 20.1601L12.7498 10.2263ZM2.96605 2.62507L11.3623 9.75007L10.1473 20.1676L2.96605 2.62507Z" fill="#FF060A"/>
</svg>
