<svg width="230" height="43" viewBox="0 0 230 43" fill="none" xmlns="http://www.w3.org/2000/svg">
<path d="M0.546334 13.7373H10.6629V16.7327H7.49797V27.0565H3.73015V16.7327H0.546334V13.7373ZM12.4107 13.6996H17.7422C18.8348 13.6996 19.8396 13.7875 20.7564 13.9633C21.6733 14.1266 22.5022 14.5599 23.2432 15.2632C23.9968 15.954 24.3673 17.009 24.3547 18.4282C24.3422 19.9102 23.9465 20.9715 23.1678 21.612C22.3892 22.24 21.5351 22.6482 20.6057 22.8366C21.9621 23.5524 23.1176 23.9481 24.0721 24.0234V27.3014C23.3688 27.1633 22.5776 26.9309 21.6984 26.6044C20.8318 26.2778 19.9903 25.9073 19.174 25.4929C18.3576 25.0659 17.5977 24.62 16.8944 24.1553V20.7077C17.3842 20.8459 17.8113 20.915 18.1755 20.915C18.8286 20.915 19.3686 20.7454 19.7956 20.4063C20.2352 20.0672 20.455 19.5146 20.455 18.7485C20.4299 17.3669 19.5445 16.6762 17.7987 16.6762H16.1974V27H12.4107V13.6996ZM33.8356 13.6996C36.0335 17.3293 37.5783 21.7627 38.4701 27H34.7022C34.6018 26.3092 34.4699 25.5682 34.3066 24.777H30.5388C30.7146 23.8601 30.9407 22.9245 31.217 21.97H33.5531C33.4275 21.4048 33.2202 20.758 32.9314 20.0295C32.6551 19.2885 32.3599 18.6292 32.0459 18.0514C31.644 18.8552 31.1919 20.017 30.6895 21.5367C30.1871 23.0438 29.735 24.8649 29.3331 27H25.5653C25.7285 26.058 25.9735 24.9654 26.3 23.722C26.6265 22.4786 27.0096 21.2164 27.4492 19.9353C27.8888 18.6543 28.3283 17.5114 28.7679 16.5066C29.2075 15.5019 29.691 14.5662 30.2185 13.6996H33.8356ZM49.2684 13.6996V16.6762H45.4441C44.6905 16.6762 44.32 16.9336 44.3326 17.4486C44.3326 17.7249 44.4519 17.9761 44.6905 18.2021C44.9417 18.4282 45.3876 18.7673 46.0281 19.2194C46.5305 19.546 47.1459 20.0044 47.8743 20.5947C48.4269 21.0594 48.8288 21.5241 49.08 21.9888C49.3312 22.4409 49.438 22.9998 49.4003 23.6655C49.3626 24.6577 49.0549 25.405 48.4772 25.9073C47.8994 26.3971 47.2966 26.7049 46.6686 26.8304C46.0532 26.9435 45.4378 27 44.8224 27H39.83V24.0234H44.0311C44.7721 24.0234 45.1426 23.766 45.1426 23.251C45.1552 22.9747 45.0736 22.7549 44.8977 22.5916C44.7345 22.4158 44.3388 22.0767 43.7109 21.5743C43.2713 21.2729 42.7375 20.8522 42.1095 20.3121C41.4188 19.7595 40.9038 19.2446 40.5647 18.7673C40.2382 18.2775 40.0812 17.6495 40.0938 16.8834C40.1063 15.527 40.5585 14.6604 41.4502 14.2836C42.3419 13.8943 43.265 13.6996 44.2195 13.6996H49.2684ZM51.3952 13.6996H55.1818V27H51.3952V13.6996ZM59.5525 13.6996H63.3392V27H59.5525V20.4251H55.8789V17.4674H59.5525V13.6996ZM99.9353 13.6996V16.6762H96.111C95.3574 16.6762 94.9869 16.9336 94.9995 17.4486C94.9995 17.7249 95.1188 17.9761 95.3574 18.2021C95.6086 18.4282 96.0545 18.7673 96.695 19.2194C97.1974 19.546 97.8128 20.0044 98.5412 20.5947C99.0939 21.0594 99.4958 21.5241 99.7469 21.9888C99.9981 22.4409 100.105 22.9998 100.067 23.6655C100.03 24.6577 99.7218 25.405 99.1441 25.9073C98.5664 26.3971 97.9635 26.7049 97.3355 26.8304C96.7201 26.9435 96.1047 27 95.4893 27H90.4969V24.0234H94.6981C95.4391 24.0234 95.8096 23.766 95.8096 23.251C95.8221 22.9747 95.7405 22.7549 95.5647 22.5916C95.4014 22.4158 95.0058 22.0767 94.3778 21.5743C93.9382 21.2729 93.4044 20.8522 92.7765 20.3121C92.0857 19.7595 91.5708 19.2446 91.2317 18.7673C90.9051 18.2775 90.7481 17.6495 90.7607 16.8834C90.7732 15.527 91.2254 14.6604 92.1171 14.2836C93.0088 13.8943 93.9319 13.6996 94.8864 13.6996H99.9353ZM101.365 13.7373H111.482V16.7327H108.317V27.0565H104.549V16.7327H101.365V13.7373ZM113.229 13.6996H118.561C119.654 13.6996 120.658 13.7875 121.575 13.9633C122.492 14.1266 123.321 14.5599 124.062 15.2632C124.815 15.954 125.186 17.009 125.173 18.4282C125.161 19.9102 124.765 20.9715 123.987 21.612C123.208 22.24 122.354 22.6482 121.424 22.8366C122.781 23.5524 123.936 23.9481 124.891 24.0234V27.3014C124.188 27.1633 123.396 26.9309 122.517 26.6044C121.651 26.2778 120.809 25.9073 119.993 25.4929C119.176 25.0659 118.416 24.62 117.713 24.1553V20.7077C118.203 20.8459 118.63 20.915 118.994 20.915C119.647 20.915 120.187 20.7454 120.614 20.4063C121.054 20.0672 121.274 19.5146 121.274 18.7485C121.249 17.3669 120.363 16.6762 118.617 16.6762H117.016V27H113.229V13.6996ZM135.804 13.6996V16.6762H130.943V24.0234H136.161V27H127.156V13.6996H135.804ZM136.595 17.7688V20.7643H131.64V17.7688H136.595ZM146.153 13.6996C148.351 17.3293 149.896 21.7627 150.787 27H147.019C146.919 26.3092 146.787 25.5682 146.624 24.777H142.856C143.032 23.8601 143.258 22.9245 143.534 21.97H145.87C145.745 21.4048 145.537 20.758 145.249 20.0295C144.972 19.2885 144.677 18.6292 144.363 18.0514C143.961 18.8552 143.509 20.017 143.007 21.5367C142.504 23.0438 142.052 24.8649 141.65 27H137.882C138.046 26.058 138.291 24.9654 138.617 23.722C138.944 22.4786 139.327 21.2164 139.766 19.9353C140.206 18.6543 140.646 17.5114 141.085 16.5066C141.525 15.5019 142.008 14.5662 142.536 13.6996H146.153ZM160.135 24.8147H158.929C158.64 23.2699 158.264 22.0579 157.799 21.1787C157.347 20.2996 156.888 19.6276 156.424 19.1629V27H152.637V13.6996H156.424C157.14 14.3778 157.874 15.3072 158.628 16.4878C159.381 17.6558 159.865 18.648 160.078 19.4644H160.154C160.33 18.8741 160.612 18.221 161.002 17.5051C161.391 16.7766 161.837 16.0733 162.339 15.3951C162.854 14.7043 163.35 14.1392 163.827 13.6996H167.595V27H163.827V19.1629C162.659 20.3686 161.818 22.2525 161.303 24.8147H160.135ZM179.027 13.6996V16.6762H175.202C174.449 16.6762 174.078 16.9336 174.091 17.4486C174.091 17.7249 174.21 17.9761 174.449 18.2021C174.7 18.4282 175.146 18.7673 175.786 19.2194C176.289 19.546 176.904 20.0044 177.632 20.5947C178.185 21.0594 178.587 21.5241 178.838 21.9888C179.089 22.4409 179.196 22.9998 179.158 23.6655C179.121 24.6577 178.813 25.405 178.235 25.9073C177.658 26.3971 177.055 26.7049 176.427 26.8304C175.811 26.9435 175.196 27 174.58 27H169.588V24.0234H173.789C174.53 24.0234 174.901 23.766 174.901 23.251C174.913 22.9747 174.832 22.7549 174.656 22.5916C174.493 22.4158 174.097 22.0767 173.469 21.5743C173.029 21.2729 172.496 20.8522 171.868 20.3121C171.177 19.7595 170.662 19.2446 170.323 18.7673C169.996 18.2775 169.839 17.6495 169.852 16.8834C169.864 15.527 170.317 14.6604 171.208 14.2836C172.1 13.8943 173.023 13.6996 173.978 13.6996H179.027ZM180.663 25.5117C180.663 24.9842 180.839 24.5572 181.191 24.2306C181.555 23.8915 181.976 23.722 182.453 23.722C182.93 23.722 183.345 23.8915 183.697 24.2306C184.048 24.5572 184.224 24.9842 184.224 25.5117C184.224 26.0392 184.042 26.4725 183.678 26.8116C183.326 27.1382 182.918 27.3014 182.453 27.3014C181.976 27.3014 181.555 27.1319 181.191 26.7928C180.839 26.4537 180.663 26.0266 180.663 25.5117ZM195.594 13.6996V16.582C195.08 16.4061 194.483 16.3182 193.805 16.3182C192.084 16.3057 190.966 16.7452 190.451 17.637C189.949 18.5161 189.666 19.4078 189.604 20.3121C189.591 21.656 189.949 22.6607 190.677 23.3264C191.406 23.992 192.348 24.3374 193.503 24.3625C194.332 24.3625 195.029 24.2495 195.594 24.0234V27C194.753 27.201 193.786 27.3014 192.693 27.3014C191.136 27.3014 189.83 26.9874 188.775 26.3595C187.732 25.7315 186.96 24.8837 186.458 23.8162C185.968 22.7486 185.723 21.5806 185.723 20.3121C185.735 18.1268 186.407 16.4187 187.739 15.1879C189.082 13.9445 190.86 13.3416 193.07 13.3793C194.075 13.417 194.916 13.5238 195.594 13.6996ZM197.092 20.3498C197.092 18.2273 197.714 16.538 198.958 15.2821C200.214 14.0136 201.89 13.3793 203.988 13.3793C205.03 13.3793 205.978 13.5426 206.832 13.8691C207.699 14.1957 208.434 14.6604 209.036 15.2632C209.639 15.8661 210.098 16.6008 210.412 17.4674C210.738 18.3214 210.902 19.2822 210.902 20.3498C210.902 21.3922 210.738 22.3467 210.412 23.2133C210.098 24.0674 209.639 24.8021 209.036 25.4175C208.434 26.0204 207.699 26.4851 206.832 26.8116C205.978 27.1382 205.03 27.3014 203.988 27.3014C202.606 27.3014 201.388 27.0188 200.333 26.4537C199.29 25.8759 198.487 25.0596 197.921 24.0046C197.369 22.9496 197.092 21.7313 197.092 20.3498ZM200.973 20.3498C200.973 21.1913 201.093 21.9072 201.331 22.4975C201.582 23.0877 201.94 23.5336 202.405 23.835C202.87 24.1365 203.397 24.2872 203.988 24.2872C204.917 24.2872 205.652 23.9481 206.192 23.2699C206.732 22.5916 207.002 21.6183 207.002 20.3498C207.002 19.1064 206.738 18.1331 206.211 17.4297C205.683 16.7264 204.942 16.3747 203.988 16.3747C203.046 16.3747 202.305 16.7264 201.765 17.4297C201.237 18.1205 200.973 19.0939 200.973 20.3498ZM220.405 24.8147H219.2C218.911 23.2699 218.534 22.0579 218.069 21.1787C217.617 20.2996 217.159 19.6276 216.694 19.1629V27H212.907V13.6996H216.694C217.41 14.3778 218.145 15.3072 218.898 16.4878C219.652 17.6558 220.135 18.648 220.349 19.4644H220.424C220.6 18.8741 220.883 18.221 221.272 17.5051C221.661 16.7766 222.107 16.0733 222.61 15.3951C223.125 14.7043 223.621 14.1392 224.098 13.6996H227.866V27H224.098V19.1629C222.93 20.3686 222.088 22.2525 221.573 24.8147H220.405Z" fill="white"/>
<path d="M5.35547 39.8027C5.35547 39.627 5.32812 39.4707 5.27344 39.334C5.22266 39.1973 5.13086 39.0723 4.99805 38.959C4.86523 38.8457 4.67773 38.7363 4.43555 38.6309C4.19727 38.5215 3.89258 38.4102 3.52148 38.2969C3.11523 38.1719 2.74023 38.0332 2.39648 37.8809C2.05664 37.7246 1.75977 37.5449 1.50586 37.3418C1.25195 37.1348 1.05469 36.8984 0.914062 36.6328C0.773438 36.3633 0.703125 36.0527 0.703125 35.7012C0.703125 35.3535 0.775391 35.0371 0.919922 34.752C1.06836 34.4668 1.27734 34.2207 1.54688 34.0137C1.82031 33.8027 2.14258 33.6406 2.51367 33.5273C2.88477 33.4102 3.29492 33.3516 3.74414 33.3516C4.37695 33.3516 4.92188 33.4688 5.37891 33.7031C5.83984 33.9375 6.19336 34.252 6.43945 34.6465C6.68945 35.041 6.81445 35.4766 6.81445 35.9531H5.35547C5.35547 35.6719 5.29492 35.4238 5.17383 35.209C5.05664 34.9902 4.87695 34.8184 4.63477 34.6934C4.39648 34.5684 4.09375 34.5059 3.72656 34.5059C3.37891 34.5059 3.08984 34.5586 2.85938 34.6641C2.62891 34.7695 2.45703 34.9121 2.34375 35.0918C2.23047 35.2715 2.17383 35.4746 2.17383 35.7012C2.17383 35.8613 2.21094 36.0078 2.28516 36.1406C2.35938 36.2695 2.47266 36.3906 2.625 36.5039C2.77734 36.6133 2.96875 36.7168 3.19922 36.8145C3.42969 36.9121 3.70117 37.0059 4.01367 37.0957C4.48633 37.2363 4.89844 37.3926 5.25 37.5645C5.60156 37.7324 5.89453 37.9238 6.12891 38.1387C6.36328 38.3535 6.53906 38.5977 6.65625 38.8711C6.77344 39.1406 6.83203 39.4473 6.83203 39.791C6.83203 40.1504 6.75977 40.4746 6.61523 40.7637C6.4707 41.0488 6.26367 41.293 5.99414 41.4961C5.72852 41.6953 5.4082 41.8496 5.0332 41.959C4.66211 42.0645 4.24805 42.1172 3.79102 42.1172C3.38086 42.1172 2.97656 42.0625 2.57812 41.9531C2.18359 41.8438 1.82422 41.6777 1.5 41.4551C1.17578 41.2285 0.917969 40.9473 0.726562 40.6113C0.535156 40.2715 0.439453 39.875 0.439453 39.4219H1.91016C1.91016 39.6992 1.95703 39.9355 2.05078 40.1309C2.14844 40.3262 2.2832 40.4863 2.45508 40.6113C2.62695 40.7324 2.82617 40.8223 3.05273 40.8809C3.2832 40.9395 3.5293 40.9688 3.79102 40.9688C4.13477 40.9688 4.42188 40.9199 4.65234 40.8223C4.88672 40.7246 5.0625 40.5879 5.17969 40.4121C5.29688 40.2363 5.35547 40.0332 5.35547 39.8027ZM13.6826 33.4688V42H12.2236V33.4688H13.6826ZM16.3603 33.4688V34.6406H9.5693V33.4688H16.3603ZM19.5253 33.4688H22.5429C23.1913 33.4688 23.7441 33.5664 24.2011 33.7617C24.6581 33.957 25.0077 34.2461 25.2499 34.6289C25.496 35.0078 25.6191 35.4766 25.6191 36.0352C25.6191 36.4609 25.5409 36.8359 25.3847 37.1602C25.2284 37.4844 25.0077 37.7578 24.7226 37.9805C24.4374 38.1992 24.0976 38.3691 23.703 38.4902L23.2577 38.707H20.5448L20.5331 37.541H22.5663C22.9179 37.541 23.2109 37.4785 23.4452 37.3535C23.6796 37.2285 23.8554 37.0586 23.9726 36.8438C24.0937 36.625 24.1542 36.3789 24.1542 36.1055C24.1542 35.8086 24.0956 35.5508 23.9784 35.332C23.8652 35.1094 23.6894 34.9395 23.4511 34.8223C23.2128 34.7012 22.9101 34.6406 22.5429 34.6406H20.996V42H19.5253V33.4688ZM24.3945 42L22.3905 38.168L23.9316 38.1621L25.9648 41.9238V42H24.3945ZM34.7079 40.834V42H30.1786V40.834H34.7079ZM30.5946 33.4688V42H29.1239V33.4688H30.5946ZM34.1161 37.0312V38.1797H30.1786V37.0312H34.1161ZM34.6786 33.4688V34.6406H30.1786V33.4688H34.6786ZM41.2713 34.6055L38.7225 42H37.1815L40.3924 33.4688H41.3768L41.2713 34.6055ZM43.4041 42L40.8495 34.6055L40.7381 33.4688H41.7284L44.951 42H43.4041ZM43.2811 38.8359V40.002H38.6405V38.8359H43.2811ZM48.5438 33.4688H49.8563L52.323 40.0488L54.784 33.4688H56.0965L52.8387 42H51.7957L48.5438 33.4688ZM47.9461 33.4688H49.1941L49.4109 39.1641V42H47.9461V33.4688ZM55.4461 33.4688H56.7V42H55.2293V39.1641L55.4461 33.4688ZM72.3171 37.5V37.9688C72.3171 38.6133 72.2331 39.1914 72.0652 39.7031C71.8972 40.2148 71.657 40.6504 71.3445 41.0098C71.0359 41.3691 70.6648 41.6445 70.2312 41.8359C69.7976 42.0234 69.3171 42.1172 68.7898 42.1172C68.2663 42.1172 67.7878 42.0234 67.3542 41.8359C66.9245 41.6445 66.5515 41.3691 66.2351 41.0098C65.9187 40.6504 65.6726 40.2148 65.4968 39.7031C65.3249 39.1914 65.239 38.6133 65.239 37.9688V37.5C65.239 36.8555 65.3249 36.2793 65.4968 35.7715C65.6687 35.2598 65.9109 34.8242 66.2234 34.4648C66.5398 34.1016 66.9128 33.8262 67.3425 33.6387C67.7761 33.4473 68.2546 33.3516 68.778 33.3516C69.3054 33.3516 69.7859 33.4473 70.2195 33.6387C70.653 33.8262 71.0261 34.1016 71.3386 34.4648C71.6511 34.8242 71.8913 35.2598 72.0593 35.7715C72.2312 36.2793 72.3171 36.8555 72.3171 37.5ZM70.8464 37.9688V37.4883C70.8464 37.0117 70.7995 36.5918 70.7058 36.2285C70.6159 35.8613 70.4812 35.5547 70.3015 35.3086C70.1257 35.0586 69.9089 34.8711 69.6511 34.7461C69.3933 34.6172 69.1023 34.5527 68.778 34.5527C68.4538 34.5527 68.1648 34.6172 67.9109 34.7461C67.657 34.8711 67.4402 35.0586 67.2605 35.3086C67.0847 35.5547 66.9499 35.8613 66.8562 36.2285C66.7624 36.5918 66.7155 37.0117 66.7155 37.4883V37.9688C66.7155 38.4453 66.7624 38.8672 66.8562 39.2344C66.9499 39.6016 67.0866 39.9121 67.2663 40.166C67.4499 40.416 67.6687 40.6055 67.9226 40.7344C68.1765 40.8594 68.4655 40.9219 68.7898 40.9219C69.1179 40.9219 69.4089 40.8594 69.6628 40.7344C69.9167 40.6055 70.1316 40.416 70.3073 40.166C70.4831 39.9121 70.6159 39.6016 70.7058 39.2344C70.7995 38.8672 70.8464 38.4453 70.8464 37.9688ZM77.2985 33.4688V42H75.8278V33.4688H77.2985ZM80.779 37.2012V38.3672H76.9235V37.2012H80.779ZM81.2653 33.4688V34.6406H76.9235V33.4688H81.2653ZM92.8277 34.6055L90.2789 42H88.7379L91.9488 33.4688H92.9332L92.8277 34.6055ZM94.9605 42L92.4059 34.6055L92.2945 33.4688H93.2848L96.5074 42H94.9605ZM94.8375 38.8359V40.002H90.1969V38.8359H94.8375ZM102.702 38.1445H100.528L100.516 37.0723H102.415C102.735 37.0723 103.006 37.0254 103.229 36.9316C103.456 36.834 103.628 36.6953 103.745 36.5156C103.862 36.332 103.92 36.1113 103.92 35.8535C103.92 35.5684 103.866 35.3359 103.756 35.1562C103.647 34.9766 103.479 34.8457 103.253 34.7637C103.03 34.6816 102.745 34.6406 102.397 34.6406H100.973V42H99.5025V33.4688H102.397C102.866 33.4688 103.284 33.5137 103.651 33.6035C104.022 33.6934 104.336 33.834 104.594 34.0254C104.856 34.2129 105.053 34.4512 105.186 34.7402C105.323 35.0293 105.391 35.373 105.391 35.7715C105.391 36.123 105.307 36.4453 105.139 36.7383C104.971 37.0273 104.723 37.2637 104.395 37.4473C104.067 37.6309 103.659 37.7402 103.17 37.7754L102.702 38.1445ZM102.637 42H100.065L100.727 40.834H102.637C102.969 40.834 103.247 40.7793 103.469 40.6699C103.692 40.5566 103.858 40.4023 103.967 40.207C104.081 40.0078 104.137 39.7754 104.137 39.5098C104.137 39.2324 104.088 38.9922 103.991 38.7891C103.893 38.582 103.739 38.4238 103.528 38.3145C103.317 38.2012 103.042 38.1445 102.702 38.1445H101.049L101.061 37.0723H103.211L103.545 37.4766C104.014 37.4922 104.399 37.5957 104.7 37.7871C105.004 37.9785 105.231 38.2266 105.379 38.5312C105.528 38.8359 105.602 39.1641 105.602 39.5156C105.602 40.0586 105.483 40.5137 105.245 40.8809C105.01 41.248 104.672 41.5273 104.231 41.7188C103.79 41.9062 103.258 42 102.637 42ZM113.613 39.8027C113.613 39.627 113.585 39.4707 113.531 39.334C113.48 39.1973 113.388 39.0723 113.255 38.959C113.123 38.8457 112.935 38.7363 112.693 38.6309C112.455 38.5215 112.15 38.4102 111.779 38.2969C111.373 38.1719 110.998 38.0332 110.654 37.8809C110.314 37.7246 110.017 37.5449 109.763 37.3418C109.509 37.1348 109.312 36.8984 109.171 36.6328C109.031 36.3633 108.96 36.0527 108.96 35.7012C108.96 35.3535 109.033 35.0371 109.177 34.752C109.326 34.4668 109.535 34.2207 109.804 34.0137C110.078 33.8027 110.4 33.6406 110.771 33.5273C111.142 33.4102 111.552 33.3516 112.001 33.3516C112.634 33.3516 113.179 33.4688 113.636 33.7031C114.097 33.9375 114.451 34.252 114.697 34.6465C114.947 35.041 115.072 35.4766 115.072 35.9531H113.613C113.613 35.6719 113.552 35.4238 113.431 35.209C113.314 34.9902 113.134 34.8184 112.892 34.6934C112.654 34.5684 112.351 34.5059 111.984 34.5059C111.636 34.5059 111.347 34.5586 111.117 34.6641C110.886 34.7695 110.714 34.9121 110.601 35.0918C110.488 35.2715 110.431 35.4746 110.431 35.7012C110.431 35.8613 110.468 36.0078 110.542 36.1406C110.617 36.2695 110.73 36.3906 110.882 36.5039C111.035 36.6133 111.226 36.7168 111.457 36.8145C111.687 36.9121 111.959 37.0059 112.271 37.0957C112.744 37.2363 113.156 37.3926 113.507 37.5645C113.859 37.7324 114.152 37.9238 114.386 38.1387C114.621 38.3535 114.796 38.5977 114.914 38.8711C115.031 39.1406 115.089 39.4473 115.089 39.791C115.089 40.1504 115.017 40.4746 114.873 40.7637C114.728 41.0488 114.521 41.293 114.251 41.4961C113.986 41.6953 113.666 41.8496 113.291 41.959C112.919 42.0645 112.505 42.1172 112.048 42.1172C111.638 42.1172 111.234 42.0625 110.835 41.9531C110.441 41.8438 110.082 41.6777 109.757 41.4551C109.433 41.2285 109.175 40.9473 108.984 40.6113C108.792 40.2715 108.697 39.875 108.697 39.4219H110.167C110.167 39.6992 110.214 39.9355 110.308 40.1309C110.406 40.3262 110.541 40.4863 110.712 40.6113C110.884 40.7324 111.084 40.8223 111.31 40.8809C111.541 40.9395 111.787 40.9688 112.048 40.9688C112.392 40.9688 112.679 40.9199 112.91 40.8223C113.144 40.7246 113.32 40.5879 113.437 40.4121C113.554 40.2363 113.613 40.0332 113.613 39.8027ZM125.233 37.5V37.9688C125.233 38.6133 125.149 39.1914 124.981 39.7031C124.813 40.2148 124.573 40.6504 124.26 41.0098C123.952 41.3691 123.581 41.6445 123.147 41.8359C122.713 42.0234 122.233 42.1172 121.706 42.1172C121.182 42.1172 120.704 42.0234 120.27 41.8359C119.84 41.6445 119.467 41.3691 119.151 41.0098C118.834 40.6504 118.588 40.2148 118.413 39.7031C118.241 39.1914 118.155 38.6133 118.155 37.9688V37.5C118.155 36.8555 118.241 36.2793 118.413 35.7715C118.584 35.2598 118.827 34.8242 119.139 34.4648C119.456 34.1016 119.829 33.8262 120.258 33.6387C120.692 33.4473 121.17 33.3516 121.694 33.3516C122.221 33.3516 122.702 33.4473 123.135 33.6387C123.569 33.8262 123.942 34.1016 124.254 34.4648C124.567 34.8242 124.807 35.2598 124.975 35.7715C125.147 36.2793 125.233 36.8555 125.233 37.5ZM123.762 37.9688V37.4883C123.762 37.0117 123.715 36.5918 123.622 36.2285C123.532 35.8613 123.397 35.5547 123.217 35.3086C123.041 35.0586 122.825 34.8711 122.567 34.7461C122.309 34.6172 122.018 34.5527 121.694 34.5527C121.37 34.5527 121.081 34.6172 120.827 34.7461C120.573 34.8711 120.356 35.0586 120.176 35.3086C120 35.5547 119.866 35.8613 119.772 36.2285C119.678 36.5918 119.631 37.0117 119.631 37.4883V37.9688C119.631 38.4453 119.678 38.8672 119.772 39.2344C119.866 39.6016 120.002 39.9121 120.182 40.166C120.366 40.416 120.584 40.6055 120.838 40.7344C121.092 40.8594 121.381 40.9219 121.706 40.9219C122.034 40.9219 122.325 40.8594 122.579 40.7344C122.832 40.6055 123.047 40.416 123.223 40.166C123.399 39.9121 123.532 39.6016 123.622 39.2344C123.715 38.8672 123.762 38.4453 123.762 37.9688ZM134.087 40.834V42H129.804V40.834H134.087ZM130.214 33.4688V42H128.744V33.4688H130.214ZM141.805 33.4688H143.27V39.1699C143.27 39.8184 143.129 40.3613 142.848 40.7988C142.567 41.2363 142.184 41.5664 141.7 41.7891C141.219 42.0078 140.682 42.1172 140.088 42.1172C139.475 42.1172 138.928 42.0078 138.448 41.7891C137.967 41.5664 137.588 41.2363 137.311 40.7988C137.038 40.3613 136.901 39.8184 136.901 39.1699V33.4688H138.366V39.1699C138.366 39.5801 138.436 39.918 138.577 40.1836C138.717 40.4453 138.916 40.6387 139.174 40.7637C139.432 40.8887 139.737 40.9512 140.088 40.9512C140.44 40.9512 140.743 40.8887 140.996 40.7637C141.254 40.6387 141.454 40.4453 141.594 40.1836C141.735 39.918 141.805 39.5801 141.805 39.1699V33.4688ZM150.419 33.4688V42H148.96V33.4688H150.419ZM153.097 33.4688V34.6406H146.306V33.4688H153.097ZM161.607 33.4688H162.919L165.386 40.0488L167.847 33.4688H169.159L165.902 42H164.859L161.607 33.4688ZM161.009 33.4688H162.257L162.474 39.1641V42H161.009V33.4688ZM168.509 33.4688H169.763V42H168.292V39.1641L168.509 33.4688ZM176.977 34.6055L174.428 42H172.887L176.098 33.4688H177.082L176.977 34.6055ZM179.11 42L176.555 34.6055L176.444 33.4688H177.434L180.656 42H179.11ZM178.987 38.8359V40.002H174.346V38.8359H178.987ZM186.13 42H184.308L184.32 40.834H186.13C186.657 40.834 187.099 40.7188 187.454 40.4883C187.814 40.2578 188.083 39.9277 188.263 39.498C188.446 39.0684 188.538 38.5566 188.538 37.9629V37.5C188.538 37.0391 188.486 36.6309 188.38 36.2754C188.279 35.9199 188.126 35.6211 187.923 35.3789C187.724 35.1367 187.478 34.9531 187.185 34.8281C186.896 34.7031 186.562 34.6406 186.183 34.6406H184.273V33.4688H186.183C186.749 33.4688 187.267 33.5645 187.736 33.7559C188.204 33.9434 188.609 34.2148 188.948 34.5703C189.292 34.9258 189.556 35.3516 189.739 35.8477C189.923 36.3438 190.015 36.8984 190.015 37.5117V37.9629C190.015 38.5762 189.923 39.1309 189.739 39.627C189.556 40.123 189.292 40.5488 188.948 40.9043C188.605 41.2559 188.195 41.5273 187.718 41.7188C187.245 41.9062 186.716 42 186.13 42ZM185.122 33.4688V42H183.652V33.4688H185.122ZM200.299 33.4688V42H198.828L195.002 35.8887V42H193.531V33.4688H195.002L198.84 39.5918V33.4688H200.299ZM209.675 40.834V42H205.146V40.834H209.675ZM205.562 33.4688V42H204.091V33.4688H205.562ZM209.083 37.0312V38.1797H205.146V37.0312H209.083ZM209.646 33.4688V34.6406H205.146V33.4688H209.646ZM217.404 39.8027C217.404 39.627 217.377 39.4707 217.322 39.334C217.272 39.1973 217.18 39.0723 217.047 38.959C216.914 38.8457 216.727 38.7363 216.484 38.6309C216.246 38.5215 215.941 38.4102 215.57 38.2969C215.164 38.1719 214.789 38.0332 214.445 37.8809C214.106 37.7246 213.809 37.5449 213.555 37.3418C213.301 37.1348 213.104 36.8984 212.963 36.6328C212.822 36.3633 212.752 36.0527 212.752 35.7012C212.752 35.3535 212.824 35.0371 212.969 34.752C213.117 34.4668 213.326 34.2207 213.596 34.0137C213.869 33.8027 214.191 33.6406 214.563 33.5273C214.934 33.4102 215.344 33.3516 215.793 33.3516C216.426 33.3516 216.971 33.4688 217.428 33.7031C217.889 33.9375 218.242 34.252 218.488 34.6465C218.738 35.041 218.863 35.4766 218.863 35.9531H217.404C217.404 35.6719 217.344 35.4238 217.223 35.209C217.106 34.9902 216.926 34.8184 216.684 34.6934C216.445 34.5684 216.143 34.5059 215.775 34.5059C215.428 34.5059 215.139 34.5586 214.908 34.6641C214.678 34.7695 214.506 34.9121 214.393 35.0918C214.279 35.2715 214.223 35.4746 214.223 35.7012C214.223 35.8613 214.26 36.0078 214.334 36.1406C214.408 36.2695 214.522 36.3906 214.674 36.5039C214.826 36.6133 215.018 36.7168 215.248 36.8145C215.479 36.9121 215.75 37.0059 216.063 37.0957C216.535 37.2363 216.947 37.3926 217.299 37.5645C217.65 37.7324 217.943 37.9238 218.178 38.1387C218.412 38.3535 218.588 38.5977 218.705 38.8711C218.822 39.1406 218.881 39.4473 218.881 39.791C218.881 40.1504 218.809 40.4746 218.664 40.7637C218.52 41.0488 218.313 41.293 218.043 41.4961C217.777 41.6953 217.457 41.8496 217.082 41.959C216.711 42.0645 216.297 42.1172 215.84 42.1172C215.43 42.1172 215.025 42.0625 214.627 41.9531C214.232 41.8438 213.873 41.6777 213.549 41.4551C213.225 41.2285 212.967 40.9473 212.775 40.6113C212.584 40.2715 212.488 39.875 212.488 39.4219H213.959C213.959 39.6992 214.006 39.9355 214.1 40.1309C214.197 40.3262 214.332 40.4863 214.504 40.6113C214.676 40.7324 214.875 40.8223 215.102 40.8809C215.332 40.9395 215.578 40.9688 215.84 40.9688C216.184 40.9688 216.471 40.9199 216.701 40.8223C216.936 40.7246 217.111 40.5879 217.229 40.4121C217.346 40.2363 217.404 40.0332 217.404 39.8027ZM226.71 39.8027C226.71 39.627 226.683 39.4707 226.628 39.334C226.577 39.1973 226.485 39.0723 226.353 38.959C226.22 38.8457 226.032 38.7363 225.79 38.6309C225.552 38.5215 225.247 38.4102 224.876 38.2969C224.47 38.1719 224.095 38.0332 223.751 37.8809C223.411 37.7246 223.114 37.5449 222.86 37.3418C222.606 37.1348 222.409 36.8984 222.269 36.6328C222.128 36.3633 222.058 36.0527 222.058 35.7012C222.058 35.3535 222.13 35.0371 222.274 34.752C222.423 34.4668 222.632 34.2207 222.901 34.0137C223.175 33.8027 223.497 33.6406 223.868 33.5273C224.239 33.4102 224.649 33.3516 225.099 33.3516C225.731 33.3516 226.276 33.4688 226.733 33.7031C227.194 33.9375 227.548 34.252 227.794 34.6465C228.044 35.041 228.169 35.4766 228.169 35.9531H226.71C226.71 35.6719 226.649 35.4238 226.528 35.209C226.411 34.9902 226.231 34.8184 225.989 34.6934C225.751 34.5684 225.448 34.5059 225.081 34.5059C224.733 34.5059 224.444 34.5586 224.214 34.6641C223.983 34.7695 223.812 34.9121 223.698 35.0918C223.585 35.2715 223.528 35.4746 223.528 35.7012C223.528 35.8613 223.565 36.0078 223.64 36.1406C223.714 36.2695 223.827 36.3906 223.98 36.5039C224.132 36.6133 224.323 36.7168 224.554 36.8145C224.784 36.9121 225.056 37.0059 225.368 37.0957C225.841 37.2363 226.253 37.3926 226.605 37.5645C226.956 37.7324 227.249 37.9238 227.483 38.1387C227.718 38.3535 227.894 38.5977 228.011 38.8711C228.128 39.1406 228.187 39.4473 228.187 39.791C228.187 40.1504 228.114 40.4746 227.97 40.7637C227.825 41.0488 227.618 41.293 227.349 41.4961C227.083 41.6953 226.763 41.8496 226.388 41.959C226.017 42.0645 225.603 42.1172 225.146 42.1172C224.735 42.1172 224.331 42.0625 223.933 41.9531C223.538 41.8438 223.179 41.6777 222.855 41.4551C222.53 41.2285 222.272 40.9473 222.081 40.6113C221.89 40.2715 221.794 39.875 221.794 39.4219H223.265C223.265 39.6992 223.312 39.9355 223.405 40.1309C223.503 40.3262 223.638 40.4863 223.81 40.6113C223.981 40.7324 224.181 40.8223 224.407 40.8809C224.638 40.9395 224.884 40.9688 225.146 40.9688C225.489 40.9688 225.776 40.9199 226.007 40.8223C226.241 40.7246 226.417 40.5879 226.534 40.4121C226.651 40.2363 226.71 40.0332 226.71 39.8027Z" fill="#FA1A1A"/>
<path d="M72.2744 10.2292C72.145 10.2154 71.9639 10.2367 71.8662 10.2645C71.7686 10.2923 71.6026 10.3779 71.4943 10.4465C71.3897 10.5216 71.2299 10.6855 71.1494 10.8111C71.0675 10.9417 70.5918 11.8284 70.0913 12.7903C69.5907 13.7523 69.0596 14.7496 68.917 15.0112C68.7127 15.3872 68.6423 15.5757 68.5734 15.9015C68.5138 16.1915 68.5043 16.3914 68.5389 16.565C68.5679 16.6989 68.6454 16.9118 68.7032 17.0371C68.7659 17.1639 68.8878 17.3288 68.9688 17.4059C69.0512 17.4778 69.7949 18.033 70.6276 18.6347L72.1303 19.7274C72.0051 20.3715 71.7085 21.8164 71.388 23.3533C71.0625 24.8888 70.8009 26.1793 70.8015 26.2177C70.8044 26.2678 71.5349 26.4856 74.2299 27.2284C76.9248 27.9713 77.6633 28.1584 77.6902 28.1166C77.7094 28.0836 78.1127 26.8212 78.5861 25.3101C79.0545 23.7976 79.5 22.3936 79.5694 22.1884L79.6939 21.8123C82.54 21.5462 83.4539 21.4479 83.5602 21.4279C83.6678 21.4029 83.8675 21.3101 84.0036 21.2163C84.1397 21.1225 84.3273 20.9335 84.4141 20.8042C84.5163 20.6572 84.6171 20.4333 84.6663 20.2444C84.7262 20.0147 84.7685 19.1781 84.8243 17.2892C84.8667 15.8398 84.8815 14.558 84.8611 14.432C84.8444 14.3124 84.7605 14.1033 84.6766 13.9762C84.594 13.844 84.4545 13.6851 84.3709 13.6183C84.2872 13.5514 84.0831 13.4569 83.9193 13.4117C83.6861 13.3474 83.559 13.3452 83.31 13.4025C83.1398 13.4431 82.91 13.5494 82.7964 13.6385C82.6765 13.7313 82.5277 13.9146 82.4517 14.0633C82.3217 14.3175 82.3103 14.4019 82.1691 16.5573C82.0893 17.783 82.0162 18.8189 82.0105 18.8612C82.0058 18.9201 81.7751 18.9276 81.0841 18.8849C80.5797 18.8608 79.7679 18.8121 79.2748 18.7856C78.7817 18.7591 77.9847 18.7146 77.4916 18.6881C76.9998 18.6565 76.5319 18.6151 76.4525 18.5932C76.3744 18.5662 75.2286 17.9822 73.9174 17.2979C72.1057 16.3498 71.5338 16.0335 71.5584 15.9801C71.574 15.9406 72.0143 15.0058 72.5408 13.9033C73.4648 11.9692 73.4974 11.8851 73.5083 11.5981C73.5148 11.4303 73.475 11.1949 73.4163 11.0529C73.3611 10.9173 73.2224 10.7149 73.107 10.6065C72.988 10.4916 72.8081 10.3654 72.7029 10.32C72.5963 10.2797 72.4051 10.2379 72.2744 10.2292Z" fill="#FA1A1A"/>
<path d="M77.7901 11.1096C77.6021 11.0961 77.3128 11.1039 77.148 11.1241C76.9831 11.1443 76.6766 11.2185 76.466 11.2918C76.2567 11.36 75.9325 11.5223 75.746 11.646C75.5582 11.7749 75.2723 12.0353 75.1046 12.2299C74.9369 12.4244 74.729 12.7119 74.6454 12.8694C74.5619 13.0269 74.4367 13.3645 74.3715 13.6147C74.3064 13.8649 74.2493 14.2268 74.2425 14.4164C74.237 14.6009 74.2668 14.9156 74.3059 15.1124C74.3437 15.3144 74.4261 15.6107 74.4895 15.7759C74.5578 15.9425 74.7028 16.2232 74.8158 16.4021C74.9288 16.581 75.1317 16.823 75.2593 16.9457C75.3869 17.0684 75.6194 17.2584 75.7784 17.3624C75.9312 17.4702 76.2478 17.6231 76.482 17.7041C76.7881 17.8158 77.0253 17.8648 77.3291 17.8829C77.5595 17.8971 77.9487 17.8731 78.1964 17.821C78.444 17.7688 78.7999 17.6481 78.9847 17.5513C79.1695 17.4544 79.4315 17.2859 79.5716 17.1768C79.7068 17.0663 79.9222 16.852 80.0531 16.6966C80.1827 16.5463 80.3614 16.2891 80.4476 16.1213C80.5326 15.9587 80.6591 15.616 80.7242 15.3658C80.7894 15.1156 80.8451 14.7589 80.8492 14.5795C80.8534 14.4 80.8131 14.0442 80.7674 13.7908C80.7102 13.4795 80.6053 13.1879 80.4553 12.9058C80.3295 12.6742 80.1227 12.3654 80.0004 12.2223C79.8768 12.0842 79.6632 11.8831 79.5303 11.7808C79.3973 11.6785 79.1307 11.5174 78.9429 11.4219C78.7599 11.3277 78.4999 11.2232 78.3695 11.1927C78.2355 11.1558 77.9781 11.1231 77.7901 11.1096Z" fill="#FA1A1A"/>
<path d="M71.9402 4.13966C71.5721 4.3885 71.263 4.61527 71.2551 4.64591C71.2484 4.67144 71.4873 5 71.794 5.37462C72.0958 5.74787 72.3459 6.07406 72.3492 6.10233C72.3475 6.12923 72.1292 6.29345 71.8546 6.46952C71.5585 6.66702 71.3829 6.81018 71.415 6.82997C71.4457 6.85487 72.2918 7.32343 73.2874 7.87152C74.283 8.41961 75.1291 8.88818 75.1612 8.90797C75.187 8.93149 75.2293 8.93223 75.2522 8.90569C75.2751 8.87916 74.9661 8.49296 74.5608 8.04739C74.1619 7.59809 73.8168 7.20742 73.7923 7.17879C73.7629 7.14878 73.8365 7.07055 73.9928 6.9604C74.1227 6.87031 74.2327 6.77475 74.2317 6.75806C74.2271 6.7349 73.8807 6.04286 73.4581 5.21484C73.0354 4.38683 72.6702 3.706 72.6503 3.70053C72.6305 3.69506 72.3082 3.89082 71.9402 4.13966Z" fill="#FA1A1A"/>
<path d="M86.3412 7.77009C85.9668 8.10474 85.6434 8.36589 85.6249 8.35531C85.6064 8.34473 85.458 8.11775 85.2929 7.8533C85.1214 7.59258 84.9677 7.38603 84.9439 7.39588C84.9138 7.40947 84.4367 8.30145 83.8794 9.37927C83.322 10.4571 82.8711 11.3508 82.8834 11.3651C82.8943 11.3846 83.1206 11.1897 83.3926 10.9418C83.6597 10.6925 84.0457 10.3337 84.2508 10.1384L84.6229 9.79221L84.9765 10.2728C85.2365 10.1529 85.9055 9.78999 86.6325 9.38834C87.3595 8.98669 87.9547 8.64175 87.9613 8.61622C87.9666 8.59579 87.7737 8.27443 87.5319 7.89581C87.2888 7.52229 87.0783 7.20704 87.0611 7.19135C87.0426 7.18078 86.7192 7.44192 86.3412 7.77009Z" fill="#FA1A1A"/>
<path d="M80.0088 2.48945C79.7345 2.41931 79.4896 2.37917 79.4644 2.39412C79.4392 2.40907 79.3852 2.82099 79.3409 3.31769C79.3029 3.81066 79.2511 4.23416 79.2296 4.25558C79.2067 4.28211 78.9582 4.2355 78.6455 4.14931C78.2088 4.02893 78.0956 4.01415 78.0909 4.07304C78.0915 4.11152 78.3657 5.10095 78.707 6.26207C79.0468 7.4283 79.3443 8.36941 79.3695 8.35446C79.3946 8.33951 79.4339 7.84144 79.4611 7.24699C79.4833 6.65118 79.5144 6.12347 79.5263 6.07752C79.5463 6.00094 79.5999 5.9993 79.811 6.04655C80.0681 6.101 80.0744 6.09726 80.1544 5.93325C80.1995 5.84172 80.4238 5.08272 80.6554 4.25461L81.0765 2.73999C80.6408 2.63629 80.2844 2.55448 80.0088 2.48945Z" fill="#FA1A1A"/>
</svg>
