<svg width="274" height="42" viewBox="0 0 274 42" fill="none" xmlns="http://www.w3.org/2000/svg">
<path d="M0.696 16.8745H13.584V20.6905H9.552V33.8425H4.752V20.6905H0.696V16.8745ZM15.8106 16.8265H22.6026C23.9946 16.8265 25.2746 16.9385 26.4426 17.1625C27.6106 17.3705 28.6666 17.9225 29.6106 18.8185C30.5706 19.6985 31.0426 21.0425 31.0266 22.8505C31.0106 24.7385 30.5066 26.0905 29.5146 26.9065C28.5226 27.7065 27.4346 28.2265 26.2506 28.4665C27.9786 29.3785 29.4506 29.8825 30.6666 29.9785V34.1545C29.7706 33.9785 28.7626 33.6825 27.6426 33.2665C26.5386 32.8505 25.4666 32.3785 24.4266 31.8505C23.3866 31.3065 22.4186 30.7385 21.5226 30.1465V25.7545C22.1466 25.9305 22.6906 26.0185 23.1546 26.0185C23.9866 26.0185 24.6746 25.8025 25.2186 25.3705C25.7786 24.9385 26.0586 24.2345 26.0586 23.2585C26.0266 21.4985 24.8986 20.6185 22.6746 20.6185H20.6346V33.7705H15.8106V16.8265ZM43.1048 16.8265C45.9048 21.4505 47.8728 27.0985 49.0088 33.7705H44.2088C44.0808 32.8905 43.9128 31.9465 43.7048 30.9385H38.9048C39.1288 29.7705 39.4168 28.5785 39.7688 27.3625H42.7448C42.5848 26.6425 42.3208 25.8185 41.9528 24.8905C41.6008 23.9465 41.2248 23.1065 40.8248 22.3705C40.3128 23.3945 39.7368 24.8745 39.0968 26.8105C38.4568 28.7305 37.8808 31.0505 37.3688 33.7705H32.5688C32.7768 32.5705 33.0888 31.1785 33.5048 29.5945C33.9208 28.0105 34.4088 26.4025 34.9688 24.7705C35.5288 23.1385 36.0888 21.6825 36.6488 20.4025C37.2088 19.1225 37.8248 17.9305 38.4968 16.8265H43.1048ZM62.7653 16.8265V20.6185H57.8933C56.9333 20.6185 56.4613 20.9465 56.4773 21.6025C56.4773 21.9545 56.6293 22.2745 56.9333 22.5625C57.2533 22.8505 57.8213 23.2825 58.6373 23.8585C59.2773 24.2745 60.0613 24.8585 60.9893 25.6105C61.6933 26.2025 62.2053 26.7945 62.5253 27.3865C62.8453 27.9625 62.9813 28.6745 62.9333 29.5225C62.8853 30.7865 62.4933 31.7385 61.7573 32.3785C61.0213 33.0025 60.2533 33.3945 59.4533 33.5545C58.6693 33.6985 57.8853 33.7705 57.1013 33.7705H50.7413V29.9785H56.0933C57.0373 29.9785 57.5093 29.6505 57.5093 28.9945C57.5253 28.6425 57.4213 28.3625 57.1973 28.1545C56.9893 27.9305 56.4853 27.4985 55.6853 26.8585C55.1253 26.4745 54.4453 25.9385 53.6453 25.2505C52.7653 24.5465 52.1093 23.8905 51.6773 23.2825C51.2613 22.6585 51.0613 21.8585 51.0773 20.8825C51.0933 19.1545 51.6693 18.0505 52.8053 17.5705C53.9413 17.0745 55.1173 16.8265 56.3333 16.8265H62.7653ZM65.4746 16.8265H70.2986V33.7705H65.4746V16.8265ZM75.8666 16.8265H80.6906V33.7705H75.8666V25.3945H71.1866V21.6265H75.8666V16.8265ZM127.312 16.8265V20.6185H122.44C121.48 20.6185 121.008 20.9465 121.024 21.6025C121.024 21.9545 121.176 22.2745 121.48 22.5625C121.8 22.8505 122.368 23.2825 123.184 23.8585C123.824 24.2745 124.608 24.8585 125.536 25.6105C126.24 26.2025 126.752 26.7945 127.072 27.3865C127.392 27.9625 127.528 28.6745 127.48 29.5225C127.432 30.7865 127.04 31.7385 126.304 32.3785C125.568 33.0025 124.8 33.3945 124 33.5545C123.216 33.6985 122.432 33.7705 121.648 33.7705H115.288V29.9785H120.64C121.584 29.9785 122.056 29.6505 122.056 28.9945C122.072 28.6425 121.968 28.3625 121.744 28.1545C121.536 27.9305 121.032 27.4985 120.232 26.8585C119.672 26.4745 118.992 25.9385 118.192 25.2505C117.312 24.5465 116.656 23.8905 116.224 23.2825C115.808 22.6585 115.608 21.8585 115.624 20.8825C115.64 19.1545 116.216 18.0505 117.352 17.5705C118.488 17.0745 119.664 16.8265 120.88 16.8265H127.312ZM129.134 16.8745H142.022V20.6905H137.99V33.8425H133.19V20.6905H129.134V16.8745ZM144.248 16.8265H151.04C152.432 16.8265 153.712 16.9385 154.88 17.1625C156.048 17.3705 157.104 17.9225 158.048 18.8185C159.008 19.6985 159.48 21.0425 159.464 22.8505C159.448 24.7385 158.944 26.0905 157.952 26.9065C156.96 27.7065 155.872 28.2265 154.688 28.4665C156.416 29.3785 157.888 29.8825 159.104 29.9785V34.1545C158.208 33.9785 157.2 33.6825 156.08 33.2665C154.976 32.8505 153.904 32.3785 152.864 31.8505C151.824 31.3065 150.856 30.7385 149.96 30.1465V25.7545C150.584 25.9305 151.128 26.0185 151.592 26.0185C152.424 26.0185 153.112 25.8025 153.656 25.3705C154.216 24.9385 154.496 24.2345 154.496 23.2585C154.464 21.4985 153.336 20.6185 151.112 20.6185H149.072V33.7705H144.248V16.8265ZM173.006 16.8265V20.6185H166.814V29.9785H173.462V33.7705H161.99V16.8265H173.006ZM174.014 22.0105V25.8265H167.702V22.0105H174.014ZM186.191 16.8265C188.991 21.4505 190.959 27.0985 192.095 33.7705H187.295C187.167 32.8905 186.999 31.9465 186.791 30.9385H181.991C182.215 29.7705 182.503 28.5785 182.855 27.3625H185.831C185.671 26.6425 185.407 25.8185 185.039 24.8905C184.687 23.9465 184.311 23.1065 183.911 22.3705C183.399 23.3945 182.823 24.8745 182.183 26.8105C181.543 28.7305 180.967 31.0505 180.455 33.7705H175.655C175.863 32.5705 176.175 31.1785 176.591 29.5945C177.007 28.0105 177.495 26.4025 178.055 24.7705C178.615 23.1385 179.175 21.6825 179.735 20.4025C180.295 19.1225 180.911 17.9305 181.583 16.8265H186.191ZM204.003 30.9865H202.467C202.099 29.0185 201.619 27.4745 201.027 26.3545C200.451 25.2345 199.867 24.3785 199.275 23.7865V33.7705H194.451V16.8265H199.275C200.187 17.6905 201.123 18.8745 202.083 20.3785C203.043 21.8665 203.659 23.1305 203.931 24.1705H204.027C204.251 23.4185 204.611 22.5865 205.107 21.6745C205.603 20.7465 206.171 19.8505 206.811 18.9865C207.467 18.1065 208.099 17.3865 208.707 16.8265H213.507V33.7705H208.707V23.7865C207.219 25.3225 206.147 27.7225 205.491 30.9865H204.003ZM228.07 16.8265V20.6185H223.198C222.238 20.6185 221.766 20.9465 221.782 21.6025C221.782 21.9545 221.934 22.2745 222.238 22.5625C222.558 22.8505 223.126 23.2825 223.942 23.8585C224.582 24.2745 225.366 24.8585 226.294 25.6105C226.998 26.2025 227.51 26.7945 227.83 27.3865C228.15 27.9625 228.286 28.6745 228.238 29.5225C228.19 30.7865 227.798 31.7385 227.062 32.3785C226.326 33.0025 225.558 33.3945 224.758 33.5545C223.974 33.6985 223.19 33.7705 222.406 33.7705H216.046V29.9785H221.398C222.342 29.9785 222.814 29.6505 222.814 28.9945C222.83 28.6425 222.726 28.3625 222.502 28.1545C222.294 27.9305 221.79 27.4985 220.99 26.8585C220.43 26.4745 219.75 25.9385 218.95 25.2505C218.07 24.5465 217.414 23.8905 216.982 23.2825C216.566 22.6585 216.366 21.8585 216.382 20.8825C216.398 19.1545 216.974 18.0505 218.11 17.5705C219.246 17.0745 220.422 16.8265 221.638 16.8265H228.07ZM230.155 31.8745C230.155 31.2025 230.379 30.6585 230.827 30.2425C231.291 29.8105 231.827 29.5945 232.435 29.5945C233.043 29.5945 233.571 29.8105 234.019 30.2425C234.467 30.6585 234.691 31.2025 234.691 31.8745C234.691 32.5465 234.459 33.0985 233.995 33.5305C233.547 33.9465 233.027 34.1545 232.435 34.1545C231.827 34.1545 231.291 33.9385 230.827 33.5065C230.379 33.0745 230.155 32.5305 230.155 31.8745ZM244.665 22.4745V24.9225C244.227 24.7732 243.721 24.6985 243.145 24.6985C241.683 24.6878 240.734 25.0612 240.297 25.8185C239.87 26.5652 239.63 27.3225 239.577 28.0905C239.566 29.2318 239.87 30.0852 240.489 30.6505C241.107 31.2158 241.907 31.5092 242.889 31.5305C243.593 31.5305 244.185 31.4345 244.665 31.2425V33.7705C243.95 33.9412 243.129 34.0265 242.201 34.0265C240.878 34.0265 239.769 33.7598 238.873 33.2265C237.987 32.6932 237.331 31.9732 236.905 31.0665C236.489 30.1598 236.281 29.1678 236.281 28.0905C236.291 26.2345 236.862 24.7838 237.993 23.7385C239.134 22.6825 240.643 22.1705 242.521 22.2025C243.374 22.2345 244.089 22.3252 244.665 22.4745ZM245.937 28.1225C245.937 26.3198 246.465 24.8852 247.521 23.8185C248.588 22.7412 250.012 22.2025 251.793 22.2025C252.678 22.2025 253.484 22.3412 254.209 22.6185C254.945 22.8958 255.569 23.2905 256.081 23.8025C256.593 24.3145 256.982 24.9385 257.249 25.6745C257.526 26.3998 257.665 27.2158 257.665 28.1225C257.665 29.0078 257.526 29.8185 257.249 30.5545C256.982 31.2798 256.593 31.9038 256.081 32.4265C255.569 32.9385 254.945 33.3332 254.209 33.6105C253.484 33.8878 252.678 34.0265 251.793 34.0265C250.62 34.0265 249.585 33.7865 248.689 33.3065C247.804 32.8158 247.121 32.1225 246.641 31.2265C246.172 30.3305 245.937 29.2958 245.937 28.1225ZM249.233 28.1225C249.233 28.8372 249.334 29.4452 249.537 29.9465C249.75 30.4478 250.054 30.8265 250.449 31.0825C250.844 31.3385 251.292 31.4665 251.793 31.4665C252.582 31.4665 253.206 31.1785 253.665 30.6025C254.124 30.0265 254.353 29.1998 254.353 28.1225C254.353 27.0665 254.129 26.2398 253.681 25.6425C253.233 25.0452 252.604 24.7465 251.793 24.7465C250.993 24.7465 250.364 25.0452 249.905 25.6425C249.457 26.2292 249.233 27.0558 249.233 28.1225ZM265.737 31.9145H264.713C264.467 30.6025 264.147 29.5732 263.753 28.8265C263.369 28.0798 262.979 27.5092 262.585 27.1145V33.7705H259.368V22.4745H262.585C263.193 23.0505 263.817 23.8398 264.457 24.8425C265.097 25.8345 265.507 26.6772 265.689 27.3705H265.753C265.902 26.8692 266.142 26.3145 266.473 25.7065C266.803 25.0878 267.182 24.4905 267.609 23.9145C268.046 23.3278 268.467 22.8478 268.873 22.4745H272.073V33.7705H268.873V27.1145C267.881 28.1385 267.166 29.7385 266.729 31.9145H265.737Z" fill="white"/>
<path d="M93.3867 12.4191C93.2195 12.4018 92.9855 12.4285 92.8593 12.4634C92.7331 12.4983 92.5187 12.6058 92.3788 12.692C92.2435 12.7864 92.0372 12.9923 91.933 13.1499C91.8272 13.314 91.2126 14.4278 90.5659 15.636C89.9191 16.8442 89.2329 18.0968 89.0486 18.4255C88.7846 18.8977 88.6937 19.1345 88.6046 19.5437C88.5277 19.908 88.5154 20.159 88.56 20.3771C88.5975 20.5453 88.6976 20.8127 88.7723 20.9701C88.8534 21.1293 89.0109 21.3365 89.1156 21.4333C89.2219 21.5236 90.1829 22.221 91.2588 22.9767L93.2005 24.3492C93.0387 25.1581 92.6555 26.9731 92.2413 28.9035C91.8208 30.8321 91.4827 32.453 91.4835 32.5013C91.4873 32.5641 92.4312 32.8377 95.9134 33.7707C99.3955 34.7038 100.35 34.9388 100.384 34.8863C100.409 34.8448 100.93 33.2593 101.542 31.3612C102.147 29.4614 102.723 27.698 102.813 27.4403L102.974 26.9679C106.651 26.6336 107.832 26.5101 107.969 26.4851C108.108 26.4536 108.366 26.3372 108.542 26.2193C108.718 26.1015 108.96 25.864 109.073 25.7016C109.205 25.5171 109.335 25.2358 109.398 24.9985C109.476 24.71 109.53 23.6593 109.603 21.2867C109.657 19.4663 109.676 17.8562 109.65 17.6979C109.628 17.5478 109.52 17.2851 109.412 17.1254C109.305 16.9593 109.125 16.7598 109.017 16.6759C108.909 16.5919 108.645 16.4732 108.433 16.4165C108.132 16.3357 107.968 16.3329 107.646 16.4048C107.426 16.4559 107.129 16.5894 106.982 16.7013C106.827 16.8178 106.635 17.0481 106.537 17.2349C106.369 17.5541 106.354 17.6602 106.172 20.3674C106.069 21.9069 105.974 23.2081 105.967 23.2611C105.961 23.3351 105.663 23.3446 104.77 23.2909C104.118 23.2606 103.069 23.1995 102.432 23.1662C101.795 23.133 100.765 23.077 100.128 23.0437C99.4925 23.0041 98.8878 22.952 98.7852 22.9245C98.6843 22.8906 97.2038 22.1571 95.5096 21.2977C93.1688 20.1068 92.4298 19.7095 92.4616 19.6424C92.4817 19.5928 93.0506 18.4187 93.731 17.0339C94.9249 14.6046 94.9669 14.499 94.9811 14.1385C94.9894 13.9277 94.938 13.6321 94.8621 13.4537C94.7909 13.2834 94.6116 13.0291 94.4625 12.893C94.3087 12.7487 94.0763 12.5901 93.9404 12.5331C93.8027 12.4825 93.5556 12.43 93.3867 12.4191Z" fill="#FA1A1A"/>
<path d="M100.514 13.5245C100.271 13.5076 99.8969 13.5174 99.6839 13.5428C99.4709 13.5682 99.0748 13.6614 98.8027 13.7534C98.5323 13.839 98.1134 14.043 97.8724 14.1983C97.6298 14.3601 97.2603 14.6873 97.0436 14.9316C96.8269 15.176 96.5584 15.537 96.4503 15.7349C96.3423 15.9328 96.1806 16.3568 96.0964 16.6711C96.0122 16.9853 95.9385 17.4398 95.9297 17.678C95.9226 17.9098 95.961 18.305 96.0116 18.5522C96.0605 18.8059 96.167 19.1781 96.2488 19.3856C96.3371 19.5948 96.5244 19.9474 96.6704 20.1721C96.8164 20.3968 97.0786 20.7008 97.2435 20.8549C97.4084 21.0091 97.7088 21.2476 97.9143 21.3783C98.1117 21.5137 98.5208 21.7058 98.8234 21.8075C99.2188 21.9478 99.5254 22.0093 99.9179 22.032C100.216 22.0499 100.719 22.0197 101.038 21.9543C101.358 21.8888 101.818 21.7371 102.057 21.6155C102.296 21.4939 102.634 21.2822 102.816 21.1451C102.99 21.0063 103.268 20.7372 103.438 20.542C103.605 20.3532 103.836 20.0302 103.947 19.8195C104.057 19.6152 104.221 19.1847 104.305 18.8705C104.389 18.5563 104.461 18.1082 104.466 17.8828C104.472 17.6574 104.42 17.2105 104.361 16.8922C104.287 16.5012 104.151 16.135 103.957 15.7807C103.795 15.4897 103.528 15.1019 103.37 14.9221C103.21 14.7487 102.934 14.4961 102.762 14.3676C102.59 14.2391 102.246 14.0368 102.003 13.9168C101.767 13.7984 101.431 13.6672 101.262 13.6289C101.089 13.5825 100.756 13.5415 100.514 13.5245Z" fill="#FA1A1A"/>
<path d="M92.955 4.77024C92.4795 5.08272 92.0801 5.36749 92.0698 5.40596C92.0612 5.43803 92.3699 5.85066 92.7662 6.32113C93.1561 6.78988 93.4794 7.19953 93.4836 7.23503C93.4814 7.26881 93.1993 7.47503 92.8446 7.69613C92.4619 7.94414 92.2351 8.12392 92.2765 8.14877C92.3162 8.18004 93.4095 8.76852 94.6959 9.45687C95.9823 10.1452 97.0756 10.7337 97.117 10.7586C97.1503 10.7881 97.2051 10.789 97.2346 10.7557C97.2642 10.7224 96.8649 10.2374 96.3413 9.6778C95.8258 9.11353 95.3799 8.62291 95.3483 8.58695C95.3103 8.54927 95.4053 8.45102 95.6073 8.3127C95.7751 8.19957 95.9172 8.07957 95.916 8.05861C95.91 8.02953 95.4625 7.16042 94.9163 6.12056C94.3701 5.0807 93.8982 4.22568 93.8725 4.21881C93.8469 4.21194 93.4305 4.45777 92.955 4.77024Z" fill="#FA1A1A"/>
<path d="M111.562 9.32992C111.079 9.75016 110.661 10.0781 110.637 10.0648C110.613 10.0515 110.421 9.76648 110.208 9.43436C109.986 9.10694 109.788 8.84754 109.757 8.85991C109.718 8.87697 109.102 9.99711 108.382 11.3506C107.661 12.7042 107.079 13.8265 107.095 13.8445C107.109 13.8689 107.401 13.6242 107.753 13.3128C108.098 12.9998 108.597 12.5492 108.862 12.304L109.342 11.8693L109.799 12.4728C110.135 12.3222 110.999 11.8665 111.939 11.3622C112.878 10.8578 113.647 10.4247 113.656 10.3926C113.663 10.3669 113.413 9.96336 113.101 9.48786C112.787 9.01877 112.515 8.62286 112.492 8.60317C112.469 8.58988 112.051 8.91782 111.562 9.32992Z" fill="#FA1A1A"/>
<path d="M103.38 2.69746C103.026 2.60937 102.709 2.55895 102.677 2.57773C102.644 2.59651 102.574 3.11389 102.517 3.73777C102.468 4.35696 102.401 4.88888 102.373 4.91579C102.344 4.94911 102.023 4.89057 101.619 4.78231C101.054 4.6311 100.908 4.61254 100.902 4.68652C100.903 4.73484 101.257 5.97761 101.698 7.43601C102.137 8.90083 102.522 10.0829 102.554 10.0641C102.587 10.0454 102.637 9.41975 102.673 8.67311C102.701 7.92474 102.741 7.26192 102.757 7.20421C102.783 7.10802 102.852 7.10596 103.125 7.16531C103.457 7.2337 103.465 7.22901 103.568 7.023C103.627 6.90803 103.916 5.9547 104.216 4.91457L104.76 3.01215C104.197 2.8819 103.736 2.77914 103.38 2.69746Z" fill="#FA1A1A"/>
</svg>
