<?xml version="1.0" encoding="utf-8"?><svg viewBox="0 0 64 64" xmlns="http://www.w3.org/2000/svg" xmlns:xlink="http://www.w3.org/1999/xlink"><style>:root>svg{display:none}:root>svg:target{display:block}</style><svg viewBox="0 0 16 16" id="add" xmlns="http://www.w3.org/2000/svg"><path fill-rule="evenodd" clip-rule="evenodd" d="M8 1.5a6.5 6.5 0 100 13 6.5 6.5 0 000-13zM8.5 6a.5.5 0 00-1 0v1.5H6a.5.5 0 000 1h1.5V10a.5.5 0 001 0V8.5H10a.5.5 0 000-1H8.5V6z"/></svg><svg viewBox="0 0 20 24" id="apple" xmlns="http://www.w3.org/2000/svg"><path d="M16.313 22.35c-1.225 1.188-2.563 1-3.85.438-1.363-.576-2.613-.6-4.05 0-1.8.774-2.75.55-3.825-.438-6.1-6.288-5.2-15.863 1.725-16.213 1.687.088 2.862.926 3.85 1 1.474-.3 2.887-1.162 4.462-1.05 1.887.15 3.313.9 4.25 2.25-3.9 2.338-2.975 7.476.6 8.913-.713 1.875-1.638 3.738-3.175 5.113l.012-.013zM10.037 6.062C9.85 3.276 12.113.976 14.712.75c.362 3.225-2.925 5.625-4.675 5.313z"/></svg><svg viewBox="0 0 10 5" id="arrow" xmlns="http://www.w3.org/2000/svg"><path d="M0 0l5 5 5-5H0z"/></svg><svg viewBox="0 0 18 18" id="burger" xmlns="http://www.w3.org/2000/svg"><path d="M2.25 4.5A.75.75 0 013 3.75h9a.75.75 0 110 1.5H3a.75.75 0 01-.75-.75zM3.188 9a.563.563 0 01.562-.563h11.393l-.916-.914a.561.561 0 11.796-.795l1.875 1.874a.563.563 0 010 .796l-1.875 1.875a.561.561 0 11-.796-.796l.915-.915H3.75A.563.563 0 013.187 9zM3 12.75a.75.75 0 100 1.5h9a.75.75 0 100-1.5H3z"/></svg><svg viewBox="0 0 20 20" id="calendar" xmlns="http://www.w3.org/2000/svg"><path fill-rule="evenodd" clip-rule="evenodd" d="M5.625 1.875a.625.625 0 01.625.625v1.25h7.5V2.5a.625.625 0 111.25 0v1.25h.625a2.5 2.5 0 012.5 2.5v9.375a2.5 2.5 0 01-2.5 2.5H4.375a2.5 2.5 0 01-2.5-2.5V6.25a2.5 2.5 0 012.5-2.5H5V2.5a.625.625 0 01.625-.625zm11.25 7.5a1.25 1.25 0 00-1.25-1.25H4.375a1.25 1.25 0 00-1.25 1.25v6.25a1.25 1.25 0 001.25 1.25h11.25a1.25 1.25 0 001.25-1.25v-6.25z"/></svg><svg viewBox="0 0 16 10" id="channel" xmlns="http://www.w3.org/2000/svg"><path d="M8.563.5H2.375C1.419.5.687 1.231.687 2.188v5.624c0 .957.732 1.688 1.688 1.688h6.188c.956 0 1.687-.731 1.687-1.688V2.188C10.25 1.232 9.519.5 8.562.5zm6.468.056a.51.51 0 00-.562 0l-2.813 1.688a.59.59 0 00-.281.506v4.5a.59.59 0 00.281.506l2.813 1.688c.056.056.168.056.281.056.113 0 .169 0 .281-.056a.59.59 0 00.281-.506V1.063a.59.59 0 00-.28-.507z"/></svg><svg viewBox="0 0 16 16" id="chat" xmlns="http://www.w3.org/2000/svg"><path fill-rule="evenodd" clip-rule="evenodd" d="M8 1.5c-1.62 0-3.211.119-4.768.347C1.913 2.041 1 3.197 1 4.494v4.012c0 1.297.913 2.453 2.232 2.647.585.086 1.174.156 1.768.21V14a.5.5 0 00.853.353l2.79-2.788a.26.26 0 01.177-.075 32.642 32.642 0 003.948-.337C14.087 10.959 15 9.804 15 8.506V4.494c0-1.298-.913-2.453-2.232-2.647A32.765 32.765 0 008 1.5zM5.5 5.75a.75.75 0 100 1.5.75.75 0 000-1.5zm1.75.75a.75.75 0 111.5 0 .75.75 0 01-1.5 0zm3.25-.75a.75.75 0 100 1.5.75.75 0 000-1.5z"/></svg><svg viewBox="0 0 8 6" id="check" xmlns="http://www.w3.org/2000/svg"><path d="M1.292 2.909a.4.4 0 00-.565.565l2 2a.4.4 0 00.565 0l4.4-4.4A.4.4 0 107.127.51L3.009 4.626 1.292 2.909z"/></svg><svg viewBox="0 0 18 18" id="check-list" xmlns="http://www.w3.org/2000/svg"><path fill-rule="evenodd" clip-rule="evenodd" d="M6.17 2.166A3.742 3.742 0 019 .875c1.13 0 2.144.5 2.83 1.29a3.741 3.741 0 012.916 1.09 3.743 3.743 0 011.089 2.914A3.74 3.74 0 0117.125 9a3.742 3.742 0 01-1.29 2.83 3.743 3.743 0 01-1.09 2.915 3.742 3.742 0 01-2.914 1.09A3.742 3.742 0 019 17.124a3.742 3.742 0 01-2.83-1.29 3.742 3.742 0 01-3.778-2.428 3.743 3.743 0 01-.227-1.576A3.741 3.741 0 01.875 9c0-1.13.5-2.144 1.29-2.83a3.742 3.742 0 011.09-2.915 3.742 3.742 0 012.914-1.09zm5.838 5.322a.625.625 0 10-1.016-.726l-2.697 3.775-1.353-1.354a.625.625 0 00-.884.884l1.875 1.875a.625.625 0 00.95-.079l3.125-4.375z"/></svg><svg viewBox="0 0 20 20" id="close" xmlns="http://www.w3.org/2000/svg"><path fill-rule="evenodd" clip-rule="evenodd" d="M4.558 4.558a.625.625 0 01.884 0L10 9.117l4.558-4.559a.627.627 0 011.082.437.626.626 0 01-.198.447L10.883 10l4.559 4.558a.625.625 0 11-.884.884L10 10.883l-4.558 4.559a.625.625 0 01-.884-.884L9.117 10 4.558 5.442a.625.625 0 010-.884z"/></svg><svg viewBox="0 0 14 20" id="coins" xmlns="http://www.w3.org/2000/svg"><path d="M.333 10c0-5.062 2.239-9.167 5-9.167h3.334c2.761 0 5 4.105 5 9.167 0 4.973-2.16 9.02-4.853 9.163l-.147.004H5.333c-2.761 0-5-4.104-5-9.167zm10 0c0 3.1-.839 5.842-2.125 7.5h.459C10.235 17.5 12 14.264 12 10c0-4.175-1.692-7.365-3.235-7.496L8.667 2.5h-.459c1.285 1.658 2.125 4.4 2.125 7.5zM2 10c0 4.264 1.765 7.5 3.333 7.5 1.569 0 3.334-3.236 3.334-7.5 0-4.264-1.765-7.5-3.334-7.5C3.765 2.5 2 5.736 2 10z"/></svg><svg viewBox="0 0 14 14" id="dashboard" xmlns="http://www.w3.org/2000/svg"><g clip-path="url(#ala)"><path fill-rule="evenodd" clip-rule="evenodd" d="M.778 7.778h4.666A.78.78 0 006.222 7V.778A.78.78 0 005.444 0H.778A.78.78 0 000 .778V7c0 .428.35.778.778.778zm0 6.222h4.666a.78.78 0 00.778-.778v-3.11a.78.78 0 00-.778-.779H.778a.78.78 0 00-.778.778v3.111c0 .428.35.778.778.778zm7.778 0h4.666a.78.78 0 00.778-.778V7a.78.78 0 00-.778-.778H8.556A.78.78 0 007.778 7v6.222c0 .428.35.778.778.778zM7.778.778v3.11c0 .429.35.779.778.779h4.666A.78.78 0 0014 3.889V.778A.78.78 0 0013.222 0H8.556a.78.78 0 00-.778.778z"/></g><defs><clipPath id="ala"><path d="M0 0h14v14H0z"/></clipPath></defs></svg><svg viewBox="0 0 16 16" id="edit" xmlns="http://www.w3.org/2000/svg"><path d="M14.488 1.513a1.75 1.75 0 00-2.475 0l-.771.771 2.474 2.475.772-.772a1.75 1.75 0 000-2.474zm-1.48 3.953l-2.474-2.475-8.1 8.1a3.5 3.5 0 00-.88 1.476l-.533 1.79a.5.5 0 00.622.622l1.79-.533a3.5 3.5 0 001.476-.88l8.1-8.1z"/></svg><svg viewBox="0 0 16 16" id="eye" xmlns="http://www.w3.org/2000/svg"><path d="M8 10a2 2 0 100-4 2 2 0 000 4z"/><path fill-rule="evenodd" clip-rule="evenodd" d="M.882 7.631a7.504 7.504 0 0114.235-.004c.08.241.08.501 0 .742a7.504 7.504 0 01-14.235.004c-.08-.24-.08-.5 0-.742zM11.5 8a3.5 3.5 0 11-7 0 3.5 3.5 0 017 0z"/></svg><svg viewBox="0 0 16 16" id="eye-off" xmlns="http://www.w3.org/2000/svg"><path d="M2.353 1.647a.5.5 0 00-.707.706l12 12a.5.5 0 10.707-.706l-12-12zm12.764 6.722a7.5 7.5 0 01-1.754 2.873l-2.066-2.066a3.5 3.5 0 00-4.474-4.473L5.172 3.05a7.504 7.504 0 019.945 4.575c.08.242.08.502 0 .743z"/><path d="M10.5 8c0 .12-.008.238-.024.353l-2.83-2.828A2.5 2.5 0 0110.502 8zm-2.146 2.475L5.525 7.646a2.5 2.5 0 002.83 2.829h-.001z"/><path d="M4.5 8c0-.413.07-.809.202-1.176L2.636 4.757A7.5 7.5 0 00.882 7.631c-.08.241-.08.501 0 .742a7.503 7.503 0 009.945 4.576l-1.651-1.652A3.5 3.5 0 014.5 8z"/></svg><svg viewBox="0 0 16 16" id="follow" xmlns="http://www.w3.org/2000/svg"><path d="M14 5.5c0-1.657-1.4-3-3.125-3-1.29 0-2.398.75-2.875 1.822C7.523 3.251 6.415 2.5 5.125 2.5 3.4 2.5 2 3.843 2 5.5c0 4.813 6 8 6 8s6-3.187 6-8z"/></svg><svg viewBox="0 0 512 512" id="full-screen-close" xmlns="http://www.w3.org/2000/svg"><path d="M192 64c-17.672 0-32 14.328-32 32v64H32c-17.672 0-32 14.328-32 32s14.328 32 32 32h160c17.672 0 32-14.328 32-32V96c0-17.672-14.328-32-32-32zm128 160h160c17.672 0 32-14.328 32-32s-14.328-32-32-32H352V96c0-17.672-14.328-32-32-32s-32 14.328-32 32v96c0 17.672 14.328 32 32 32zm160 64H320c-17.672 0-32 14.328-32 32v96c0 17.672 14.328 32 32 32s32-14.328 32-32v-64h128c17.672 0 32-14.328 32-32s-14.328-32-32-32zm-288 0H32c-17.672 0-32 14.328-32 32s14.328 32 32 32h128v64c0 17.672 14.328 32 32 32s32-14.328 32-32v-96c0-17.672-14.328-32-32-32z"/></svg><svg viewBox="0 0 20 20" id="full-screen-open" xmlns="http://www.w3.org/2000/svg"><path fill-rule="evenodd" clip-rule="evenodd" d="M2.857 12.857H0V20h7.143v-2.857H2.857v-4.286zM0 7.143h2.857V2.857h4.286V0H0v7.143zm17.143 10h-4.286V20H20v-7.143h-2.857v4.286zM12.857 0v2.857h4.286v4.286H20V0h-7.143z"/></svg><svg viewBox="0 0 24 24" id="google" xmlns="http://www.w3.org/2000/svg"><g clip-path="url(#asa)"><path d="M8.36.79a11.865 11.865 0 00.812 22.668c1.988.513 4.07.536 6.068.066A10.711 10.711 0 0020.096 21a10.77 10.77 0 003-4.924 13.93 13.93 0 00.302-6.296h-11.16v4.63h6.463a5.57 5.57 0 01-2.373 3.66 6.786 6.786 0 01-2.612 1.03 7.743 7.743 0 01-2.832 0 6.975 6.975 0 01-2.634-1.149 7.369 7.369 0 01-2.719-3.64 7.181 7.181 0 010-4.62 7.36 7.36 0 011.721-2.795 6.97 6.97 0 017.022-1.833 6.432 6.432 0 012.558 1.5c.729-.725 1.456-1.452 2.182-2.181.375-.392.784-.765 1.154-1.166A11.475 11.475 0 0016.35.86 12 12 0 008.36.789z"/><path d="M8.36.79a12 12 0 017.99.069 11.474 11.474 0 013.816 2.366c-.375.401-.771.776-1.154 1.166-.727.726-1.454 1.45-2.18 2.171a6.431 6.431 0 00-2.558-1.5A6.97 6.97 0 007.251 6.89a7.36 7.36 0 00-1.722 2.795l-3.886-3.01A11.912 11.912 0 018.36.789zM.611 9.656a11.813 11.813 0 011.032-2.981l3.886 3.017a7.181 7.181 0 000 4.618c-1.295 1-2.59 2.005-3.886 3.015A11.874 11.874 0 01.61 9.656zM12.238 9.778h11.16a13.931 13.931 0 01-.302 6.296 10.77 10.77 0 01-3 4.924c-1.254-.979-2.514-1.95-3.768-2.929a5.573 5.573 0 002.373-3.663h-6.463c-.002-1.542 0-3.085 0-4.628z"/><path d="M1.64 17.325c1.297-1 2.592-2.005 3.887-3.015a7.369 7.369 0 002.723 3.641c.791.56 1.69.948 2.64 1.14a7.744 7.744 0 002.831 0 6.788 6.788 0 002.612-1.03c1.255.978 2.515 1.95 3.769 2.928a10.712 10.712 0 01-4.856 2.525 12.67 12.67 0 01-6.068-.065 11.813 11.813 0 01-4.312-2.173 11.944 11.944 0 01-3.225-3.95z"/></g><defs><clipPath id="asa"><path d="M0 0h24v24H0z"/></clipPath></defs></svg><svg viewBox="0 0 16 16" id="heart" xmlns="http://www.w3.org/2000/svg"><path d="M14.866 2.25c-.756-.738-1.8-1.107-3.134-1.107a3.56 3.56 0 00-1.13.192c-.383.128-.74.3-1.07.518-.331.217-.615.42-.854.611-.237.19-.464.393-.678.607a8.262 8.262 0 00-.679-.607c-.238-.19-.522-.394-.852-.611a4.571 4.571 0 00-1.072-.518 3.561 3.561 0 00-1.13-.192c-1.333 0-2.377.369-3.133 1.107C.378 2.988 0 4.012 0 5.321c0 .4.07.81.21 1.232.14.423.299.783.478 1.08a7.9 7.9 0 00.607.871c.226.283.391.478.495.585.104.107.186.185.246.232l5.571 5.375a.535.535 0 00.393.161.535.535 0 00.393-.16l5.562-5.358C15.32 7.976 16 6.637 16 5.321c0-1.31-.378-2.333-1.134-3.071z"/></svg><svg viewBox="0 0 16 16" id="home" xmlns="http://www.w3.org/2000/svg"><path d="M6.09 13.849V11.81c0-.52.425-.942.949-.942h1.916c.252 0 .493.1.671.276a.939.939 0 01.278.666v2.039a.809.809 0 00.238.578.82.82 0 00.58.24h1.307A2.307 2.307 0 0013.66 14a2.28 2.28 0 00.674-1.616V6.578c0-.49-.218-.954-.597-1.268L9.29 1.784a2.065 2.065 0 00-2.632.047L2.31 5.31a1.65 1.65 0 00-.644 1.268v5.801a2.296 2.296 0 002.304 2.288h1.277a.82.82 0 00.824-.812l.018-.006z"/></svg><svg viewBox="0 0 16 16" id="info" xmlns="http://www.w3.org/2000/svg"><path fill-rule="evenodd" clip-rule="evenodd" d="M6.267 2.002c.77-1.333 2.695-1.333 3.465 0l4.903 8.499c.77 1.333-.193 3-1.732 3H3.095c-1.539 0-2.5-1.667-1.732-3L6.266 2h.001zM8 5.5a.5.5 0 01.5.5v2.5a.5.5 0 01-1 0V6a.5.5 0 01.5-.5zM8 11a.5.5 0 100-1 .5.5 0 000 1z"/></svg><svg viewBox="0 0 48 48" id="lock" xmlns="http://www.w3.org/2000/svg"><path fill-rule="evenodd" clip-rule="evenodd" d="M24 4a8 8 0 00-8 8v8h16v-8a8 8 0 00-8-8zm12 16v-8c0-6.627-5.373-12-12-12S12 5.373 12 12v8a6 6 0 00-6 6v16a6 6 0 006 6h24a6 6 0 006-6V26a6 6 0 00-6-6zm-24 4a2 2 0 00-2 2v16a2 2 0 002 2h24a2 2 0 002-2V26a2 2 0 00-2-2H12zm12 6a2 2 0 012 2v4a2 2 0 11-4 0v-4a2 2 0 012-2z"/></svg><svg viewBox="0 0 16 16" id="lots" xmlns="http://www.w3.org/2000/svg"><path d="M8 5a1.5 1.5 0 100 3 1.5 1.5 0 000-3z"/><path fill-rule="evenodd" clip-rule="evenodd" d="M1 3.25C1 2.56 1.56 2 2.25 2h11.5c.69 0 1.25.56 1.25 1.25v6.5c0 .69-.56 1.25-1.25 1.25H2.25A1.25 1.25 0 011 9.75v-6.5zM5.5 6.5a2.5 2.5 0 115 0 2.5 2.5 0 01-5 0zm7-.5a.5.5 0 00-.5.5v.005a.5.5 0 00.5.5h.005a.5.5 0 00.5-.5V6.5a.5.5 0 00-.5-.5H12.5zM3 6.5a.5.5 0 01.5-.5h.005a.5.5 0 01.5.5v.005a.5.5 0 01-.5.5H3.5a.5.5 0 01-.5-.5V6.5z"/><path d="M1.5 12a.5.5 0 000 1c3.6 0 7.087.481 10.4 1.383.793.216 1.6-.372 1.6-1.213v-.67a.5.5 0 00-.5-.5H1.5z"/></svg><svg viewBox="0 0 20 20" id="mes" xmlns="http://www.w3.org/2000/svg"><path d="M1.875 11.25h3.217a1.875 1.875 0 011.676 1.037l.214.426a1.875 1.875 0 001.677 1.037h2.682a1.875 1.875 0 001.677-1.037l.214-.426a1.874 1.874 0 011.677-1.037h3.216m-16.25.282V15a1.875 1.875 0 001.875 1.875h12.5A1.875 1.875 0 0018.125 15v-3.468a1.87 1.87 0 00-.083-.551l-2.009-6.533a1.874 1.874 0 00-1.791-1.323H5.759a1.875 1.875 0 00-1.792 1.323l-2.009 6.533a1.875 1.875 0 00-.083.55z"/></svg><svg viewBox="0 0 24 24" id="mini-player"><path d="M21 3H3c-1.1 0-2 .9-2 2v14c0 1.1.9 2 2 2h18c1.1 0 2-.9 2-2V5c0-1.1-.9-2-2-2zm0 16H3V5h18v14zm-10-7h9v6h-9z"/></svg><svg viewBox="0 0 16 16" id="nav" xmlns="http://www.w3.org/2000/svg"><g clip-path="url(#baa)"><path d="M8 .102a7.994 7.994 0 108 7.994A8 8 0 008 .102zm4.48 3.936l-2.08 6.234a.32.32 0 01-.205.205l-6.253 2.08H3.84a.32.32 0 01-.3-.397l2.08-6.247a.32.32 0 01.204-.204l6.234-2.08a.326.326 0 01.326.076.32.32 0 01.077.333h.019zM8 6.502a1.6 1.6 0 10.586.11 1.6 1.6 0 00-.624-.11H8z"/></g><defs><clipPath id="baa"><path d="M0 0h16v16H0z"/></clipPath></defs></svg><svg viewBox="0 0 20 20" id="notification" xmlns="http://www.w3.org/2000/svg"><path d="M1.875 10.633c0 1.334.936 2.495 2.256 2.69.906.133 1.82.235 2.744.307v3.87l3.397-3.397c.23-.229.54-.36.864-.369a40.253 40.253 0 004.733-.412c1.32-.194 2.256-1.354 2.256-2.69V5.619c0-1.336-.936-2.496-2.256-2.69A40.329 40.329 0 0010 2.5c-1.993 0-3.953.146-5.87.428-1.32.194-2.255 1.355-2.255 2.69v5.015z"/></svg><svg viewBox="0 0 16 16" id="out" xmlns="http://www.w3.org/2000/svg"><path d="M14.473 7.533l-1.5-1.5a.677.677 0 00-.973.94l.36.36H6.773a.667.667 0 000 1.334H12.4l-.36.36a.668.668 0 10.94.94l1.487-1.487a.667.667 0 00.006-.947z"/><path d="M5.44 8a1.333 1.333 0 011.333-1.333h4.174V4A2.667 2.667 0 008.28 1.333H4A2.667 2.667 0 001.333 4v8A2.667 2.667 0 004 14.667h4.28A2.667 2.667 0 0010.947 12V9.333H6.773A1.333 1.333 0 015.44 8z"/></svg><svg viewBox="0 0 24 24" id="pause" xmlns="http://www.w3.org/2000/svg"><path fill-rule="evenodd" clip-rule="evenodd" d="M6.75 5.25a.75.75 0 01.75-.75H9a.75.75 0 01.75.75v13.5a.75.75 0 01-.75.75H7.5a.75.75 0 01-.75-.75V5.25zm7.5 0A.75.75 0 0115 4.5h1.5a.75.75 0 01.75.75v13.5a.75.75 0 01-.75.75H15a.75.75 0 01-.75-.75V5.25z"/></svg><svg viewBox="0 0 24 24" id="play" xmlns="http://www.w3.org/2000/svg"><path fill-rule="evenodd" clip-rule="evenodd" d="M4.5 5.653c0-1.427 1.529-2.33 2.779-1.643l11.54 6.347c1.295.712 1.295 2.573 0 3.286L7.28 19.99c-1.25.687-2.779-.217-2.779-1.643L4.5 5.653z"/></svg><svg viewBox="0 0 16 16" id="search" xmlns="http://www.w3.org/2000/svg"><path d="M14 14l-3.465-3.465m0 0a5 5 0 10-7.071-7.071 5 5 0 007.071 7.071z"/></svg><svg viewBox="0 0 16 16" id="settings" xmlns="http://www.w3.org/2000/svg"><path d="M13.763 9.018l-.263-.152A.99.99 0 0113 8a.99.99 0 01.5-.866l.263-.152a1.5 1.5 0 00.55-2.049l-.5-.866a1.502 1.502 0 00-2.05-.549l-.263.152a.989.989 0 01-1 0 .99.99 0 01-.5-.866V2.5C10 1.673 9.327 1 8.5 1h-1C6.673 1 6 1.673 6 2.5v.304a.99.99 0 01-.5.866.99.99 0 01-1 0l-.263-.152a1.502 1.502 0 00-2.05.549l-.5.866a1.5 1.5 0 00.55 2.049l.263.152c.313.18.5.504.5.866a.99.99 0 01-.5.866l-.263.152a1.5 1.5 0 00-.549 2.049l.5.866a1.502 1.502 0 002.05.549l.262-.151a.989.989 0 011 0 .99.99 0 01.5.866v.303c0 .827.673 1.5 1.5 1.5h1c.827 0 1.5-.673 1.5-1.5v-.304a.99.99 0 01.5-.866.99.99 0 011 0l.263.152a1.502 1.502 0 002.05-.549l.5-.866a1.5 1.5 0 00-.55-2.049zM8 10.5A2.503 2.503 0 015.5 8c0-1.378 1.122-2.5 2.5-2.5 1.379 0 2.5 1.122 2.5 2.5 0 1.379-1.121 2.5-2.5 2.5z"/></svg><svg viewBox="0 0 24 24" id="settings-video" xmlns="http://www.w3.org/2000/svg"><path fill-rule="evenodd" clip-rule="evenodd" d="M11.828 2.25c-.916 0-1.699.663-1.85 1.567l-.091.549a.798.798 0 01-.517.608c-.162.06-.321.126-.478.198a.798.798 0 01-.796-.064l-.453-.324a1.875 1.875 0 00-2.416.2l-.243.243a1.875 1.875 0 00-.2 2.416l.324.453a.798.798 0 01.064.796 7.442 7.442 0 00-.198.478.798.798 0 01-.608.517l-.55.092a1.875 1.875 0 00-1.566 1.849v.344c0 .916.663 1.699 1.567 1.85l.549.091c.281.047.508.25.608.517.06.162.127.321.198.478a.798.798 0 01-.064.796l-.324.453a1.875 1.875 0 00.2 2.416l.243.243c.648.648 1.67.733 2.416.2l.453-.324a.798.798 0 01.796-.064c.157.071.316.137.478.198.267.1.47.327.517.608l.092.55c.15.903.932 1.566 1.849 1.566h.344c.916 0 1.699-.663 1.85-1.567l.091-.549a.799.799 0 01.517-.608c.162-.06.321-.127.478-.198a.797.797 0 01.796.064l.453.324a1.875 1.875 0 002.416-.2l.243-.243c.648-.648.733-1.67.2-2.416l-.324-.453a.798.798 0 01-.064-.796c.071-.157.137-.316.198-.478.1-.267.327-.47.608-.517l.55-.091a1.875 1.875 0 001.566-1.85v-.344c0-.916-.663-1.699-1.567-1.85l-.549-.091a.798.798 0 01-.608-.517 7.498 7.498 0 00-.198-.478.797.797 0 01.064-.796l.324-.453a1.875 1.875 0 00-.2-2.416l-.243-.243a1.875 1.875 0 00-2.416-.2l-.453.324a.798.798 0 01-.796.064 7.451 7.451 0 00-.478-.198.798.798 0 01-.517-.608l-.091-.55a1.875 1.875 0 00-1.85-1.566h-.344zM12 15.75a3.75 3.75 0 100-7.5 3.75 3.75 0 000 7.5z"/></svg><svg viewBox="0 0 16 16" id="share" xmlns="http://www.w3.org/2000/svg"><path fill-rule="evenodd" clip-rule="evenodd" d="M10.5 3a2 2 0 11.55 1.377l-5.614 3.12c.086.33.086.676 0 1.006l5.614 3.12a2 2 0 11-.486.873L4.95 9.377a2 2 0 110-2.754l5.614-3.12A1.993 1.993 0 0110.5 3z"/></svg><svg viewBox="0 0 17 16" id="star" xmlns="http://www.w3.org/2000/svg"><path fill-rule="evenodd" clip-rule="evenodd" d="M8.5 13.477l3.92 2.37c.717.435 1.595-.207 1.407-1.02l-1.04-4.457 3.467-3.003c.633-.548.293-1.587-.539-1.653l-4.561-.387-1.785-4.212C9.048.35 7.952.35 7.63 1.115L5.846 5.317l-4.562.388C.454 5.77.114 6.81.746 7.357l3.466 3.004-1.039 4.457c-.189.813.69 1.455 1.407 1.02l3.92-2.36z"/></svg><svg viewBox="0 0 14 14" id="star-subscr" xmlns="http://www.w3.org/2000/svg"><path d="M6.653 1.333a.375.375 0 01.693 0L8.763 4.74a.375.375 0 00.317.23l3.678.295a.375.375 0 01.215.658L10.17 8.325a.375.375 0 00-.121.371l.856 3.59a.375.375 0 01-.56.407l-3.15-1.924a.375.375 0 00-.39 0l-3.15 1.924a.374.374 0 01-.56-.406l.856-3.591a.375.375 0 00-.121-.371L1.027 5.923a.375.375 0 01.214-.658L4.92 4.97a.375.375 0 00.316-.23l1.417-3.407z"/></svg><svg viewBox="0 0 20 20" id="start-stream" xmlns="http://www.w3.org/2000/svg"><path d="M3.75 3.75a2.5 2.5 0 00-2.5 2.5v7.5a2.5 2.5 0 002.5 2.5h6.875a2.5 2.5 0 002.5-2.5v-7.5a2.5 2.5 0 00-2.5-2.5H3.75zm12.867 11.875l-2.242-2.242V6.617l2.242-2.242c.786-.788 2.133-.23 2.133.883v9.484c0 1.113-1.347 1.67-2.133.883z"/></svg><svg viewBox="0 0 16 16" id="tips" xmlns="http://www.w3.org/2000/svg"><path d="M13.5 4.25C13.5 5.769 11.037 7 8 7S2.5 5.769 2.5 4.25m11 0c0-1.519-2.463-2.75-5.5-2.75S2.5 2.731 2.5 4.25m11 0v7.5c0 1.519-2.463 2.75-5.5 2.75s-5.5-1.231-5.5-2.75v-7.5m11 0v2.5m-11-2.5v2.5m11 0v2.5C13.5 10.769 11.037 12 8 12s-5.5-1.231-5.5-2.75v-2.5m11 0c0 1.519-2.463 2.75-5.5 2.75S2.5 8.269 2.5 6.75"/></svg><svg viewBox="0 0 16 16" id="users" xmlns="http://www.w3.org/2000/svg"><path d="M3 4.25a2.75 2.75 0 115.5 0 2.75 2.75 0 01-5.5 0zm6.5 1.5a2.25 2.25 0 114.5 0 2.25 2.25 0 01-4.5 0zm-8.5 7a4.75 4.75 0 119.5 0v.082a.5.5 0 01-.243.42A8.712 8.712 0 015.75 14.5a8.708 8.708 0 01-4.507-1.249.5.5 0 01-.242-.42L1 12.75zm10.5.002v.096a1.5 1.5 0 01-.156.64 6.726 6.726 0 003.373-.673.5.5 0 00.28-.429 3.25 3.25 0 00-4.638-3.074 5.723 5.723 0 011.14 3.438l.001.002z"/></svg><svg viewBox="0 0 24 24" id="volume-high"><path d="M14 3.23v2.06c2.89.86 5 3.54 5 6.71s-2.11 5.84-5 6.7v2.07c4-.91 7-4.49 7-8.77 0-4.28-3-7.86-7-8.77M16.5 12c0-1.77-1-3.29-2.5-4.03V16c1.5-.71 2.5-2.24 2.5-4M3 9v6h4l5 5V4L7 9H3z"/></svg><svg viewBox="0 0 24 24" id="volume-low"><path d="M5 9v6h4l5 5V4L9 9m9.5 3c0-1.77-1-3.29-2.5-4.03V16c1.5-.71 2.5-2.24 2.5-4z"/></svg><svg viewBox="0 0 24 24" id="volume-muted" xmlns="http://www.w3.org/2000/svg"><path d="M13.5 4.06c0-1.336-1.616-2.005-2.56-1.06l-4.5 4.5H4.508c-1.141 0-2.318.664-2.66 1.905A9.76 9.76 0 001.5 12c0 .898.121 1.768.35 2.595.341 1.24 1.518 1.905 2.659 1.905h1.93l4.5 4.5c.945.945 2.561.276 2.561-1.06V4.06zm4.28 5.16a.75.75 0 10-1.06 1.06L18.44 12l-1.72 1.72a.75.75 0 101.06 1.06l1.72-1.72 1.72 1.72a.752.752 0 001.244-.23.749.749 0 00-.184-.83L20.56 12l1.72-1.72a.75.75 0 10-1.06-1.06l-1.72 1.72-1.72-1.72z"/></svg></svg>